<?xml version="1.0" standalone="no"?>
<!DOCTYPE svg PUBLIC "-//W3C//DTD SVG 20010904//EN"
 "http://www.w3.org/TR/2001/REC-SVG-20010904/DTD/svg10.dtd">
<svg version="1.0" xmlns="http://www.w3.org/2000/svg"
 width="1024.000000pt" height="1024.000000pt" viewBox="0 0 1024.000000 1024.000000"
 preserveAspectRatio="xMidYMid meet">
<metadata>
Created by potrace 1.14, written by Peter Selinger 2001-2017
</metadata>
<g transform="translate(0.000000,1024.000000) scale(0.100000,-0.100000)"
fill="#000000" stroke="none">
<path d="M4906 9722 c-2 -4 -34 -7 -70 -6 -44 2 -66 -2 -66 -9 0 -7 -5 -5 -10
3 -6 9 -10 10 -10 3 0 -7 -17 -10 -50 -9 -28 2 -52 0 -55 -4 -2 -3 -28 -7 -57
-9 -29 -1 -58 -7 -65 -13 -10 -8 -13 -7 -13 3 0 9 -3 10 -8 4 -4 -6 -18 -10
-32 -10 -14 1 -29 -2 -35 -5 -5 -4 -23 -6 -40 -6 -16 1 -36 -6 -43 -14 -8 -8
-11 -9 -7 -2 7 14 -11 17 -20 2 -3 -5 -12 -7 -20 -3 -8 3 -15 1 -15 -4 0 -5
-15 -9 -32 -8 -18 0 -38 -3 -45 -8 -12 -9 -41 -15 -98 -21 -16 -2 -31 -5 -32
-6 -2 -1 -7 -4 -13 -5 -5 -1 -12 -4 -15 -5 -3 -1 -9 -4 -15 -5 -5 -1 -11 -3
-12 -5 -2 -1 -16 -4 -32 -6 -16 -3 -37 -9 -47 -15 -10 -5 -27 -9 -38 -9 -12 0
-21 -4 -21 -9 0 -6 -9 -8 -20 -6 -11 2 -20 1 -20 -3 0 -5 -31 -16 -70 -27 -38
-11 -70 -23 -70 -29 0 -5 -3 -6 -7 -3 -3 4 -12 2 -20 -4 -7 -6 -13 -9 -13 -5
0 4 -13 0 -29 -8 -16 -9 -31 -12 -35 -9 -3 4 -6 1 -6 -6 0 -7 -4 -10 -9 -6 -5
3 -12 1 -16 -5 -4 -6 -11 -8 -16 -5 -5 4 -12 -1 -15 -10 -6 -13 -8 -14 -15 -3
-7 11 -9 11 -9 -1 0 -7 -6 -11 -14 -8 -15 6 -40 -15 -31 -25 3 -3 -6 -3 -20
-1 -16 4 -25 1 -25 -7 0 -7 -7 -10 -15 -6 -8 3 -15 1 -15 -3 0 -8 -48 -30 -61
-27 -3 1 -13 -7 -23 -17 -10 -9 -22 -15 -27 -12 -5 4 -9 1 -9 -4 0 -6 -7 -11
-15 -11 -8 0 -15 -5 -15 -10 0 -6 -3 -9 -7 -8 -15 4 -53 -13 -53 -23 0 -6 -4
-8 -9 -4 -5 3 -12 1 -16 -5 -4 -6 -10 -8 -15 -5 -4 3 -10 -2 -14 -10 -3 -8
-15 -15 -26 -15 -11 0 -20 -5 -20 -11 0 -5 -4 -8 -9 -5 -5 3 -12 -1 -15 -10
-3 -8 -10 -13 -15 -10 -5 4 -16 0 -23 -8 -8 -7 -24 -17 -36 -20 -12 -4 -22
-11 -22 -16 0 -6 -44 -23 -46 -17 0 1 -12 -11 -27 -27 -16 -17 -27 -23 -27
-15 -1 9 -5 7 -13 -6 -7 -11 -19 -21 -27 -23 -8 -2 -16 -8 -18 -13 -2 -5 -8
-9 -14 -9 -5 0 -36 -21 -69 -46 -32 -25 -59 -42 -59 -38 0 4 -8 -3 -19 -14
-10 -12 -21 -19 -24 -16 -3 3 -11 -4 -17 -16 -6 -12 -14 -19 -17 -17 -2 3 -13
-2 -22 -11 -33 -31 -71 -62 -78 -62 -3 0 -19 -14 -35 -32 -15 -17 -28 -28 -28
-24 0 4 -13 -5 -29 -21 -70 -69 -121 -113 -130 -113 -6 0 -11 -6 -11 -13 0
-16 -67 -77 -75 -69 -3 3 -5 -1 -5 -10 0 -8 -11 -21 -25 -28 -14 -7 -25 -17
-25 -22 0 -5 -24 -32 -52 -61 -99 -99 -167 -180 -161 -190 3 -6 2 -7 -4 -4
-10 7 -35 -19 -46 -47 -4 -10 -12 -14 -18 -10 -7 4 -9 3 -6 -3 3 -5 -9 -26
-28 -47 -19 -21 -47 -57 -62 -80 -15 -22 -36 -48 -45 -57 -10 -9 -18 -21 -18
-28 0 -6 -4 -11 -10 -11 -5 0 -6 -7 -3 -17 4 -10 2 -14 -4 -10 -6 4 -17 -1
-24 -10 -12 -14 -12 -16 1 -8 13 8 13 7 0 -11 -8 -10 -21 -23 -28 -27 -7 -5
-10 -12 -7 -17 3 -5 -3 -15 -12 -22 -10 -7 -19 -20 -21 -28 -2 -8 -10 -20 -17
-26 -8 -6 -12 -14 -8 -17 3 -4 1 -7 -6 -7 -8 0 -11 -6 -7 -16 5 -12 2 -15 -9
-10 -10 3 -13 2 -10 -5 4 -6 -1 -19 -11 -30 -9 -10 -13 -19 -8 -19 5 0 0 -7
-11 -16 -11 -8 -19 -16 -17 -17 9 -6 -12 -36 -21 -30 -6 3 -7 1 -3 -6 4 -6 2
-18 -4 -26 -7 -8 -9 -15 -4 -15 4 0 -2 -10 -14 -23 -12 -13 -19 -27 -15 -30 3
-4 1 -7 -5 -7 -7 0 -12 -3 -11 -7 2 -16 -14 -53 -22 -53 -5 0 -9 -5 -9 -11 0
-15 -43 -103 -52 -107 -4 -2 -4 -10 -1 -18 3 -8 0 -14 -6 -14 -6 0 -10 -3 -9
-7 1 -9 -15 -52 -37 -97 -8 -16 -12 -32 -9 -37 3 -5 0 -9 -5 -9 -6 0 -11 -6
-11 -12 0 -7 -7 -26 -15 -42 -9 -16 -17 -41 -19 -55 -2 -14 -6 -33 -9 -41 -19
-51 -28 -91 -22 -100 4 -6 1 -9 -6 -8 -20 5 -17 -76 4 -121 11 -22 23 -38 28
-35 5 3 9 -2 9 -11 0 -9 5 -13 10 -10 6 4 16 3 23 -3 25 -19 136 6 122 28 -4
6 -1 9 5 8 7 -2 20 12 29 29 10 18 21 30 24 26 4 -3 5 4 2 16 -2 11 1 21 6 21
6 0 8 4 4 9 -3 5 -1 12 4 16 6 3 8 12 4 20 -3 8 0 15 6 15 6 0 8 7 5 15 -4 8
-1 15 5 15 6 0 11 11 11 25 0 14 5 25 12 25 6 0 9 3 5 6 -3 3 3 26 13 50 11
24 16 44 12 44 -4 0 -1 4 5 8 7 4 14 17 17 27 9 43 19 65 28 65 6 0 8 7 4 15
-3 8 -2 15 3 15 5 0 12 10 16 23 4 12 9 24 10 27 1 3 6 15 10 28 4 12 11 22
16 22 5 0 8 3 7 8 -1 4 4 18 12 32 8 14 15 31 16 39 2 8 8 17 14 21 7 4 12 11
13 16 1 5 5 8 9 7 4 -2 5 7 3 18 -2 11 2 22 10 25 7 3 16 12 19 20 4 10 1 13
-7 9 -6 -4 -5 -1 3 7 23 19 60 83 60 102 0 9 6 15 13 13 6 -1 11 4 10 11 -2 6
2 12 8 12 5 0 8 4 5 8 -3 5 6 20 20 35 14 15 22 27 18 27 -4 0 2 9 14 20 12
12 22 27 22 35 0 8 9 19 21 25 11 7 18 18 15 25 -3 10 0 12 12 8 9 -3 14 -2 9
2 -4 5 3 19 15 32 12 13 19 23 15 23 -3 0 4 10 16 23 42 43 66 80 60 90 -4 6
-1 7 6 3 8 -5 14 0 18 13 3 11 9 19 13 16 4 -2 12 7 19 21 6 15 16 22 23 18 6
-4 8 -3 5 2 -3 6 13 30 36 55 23 24 45 49 47 54 3 6 8 9 13 7 4 -1 7 2 7 7 0
6 29 39 65 75 36 36 65 70 65 75 0 6 9 11 21 11 12 0 17 4 14 11 -4 6 2 13 14
16 11 3 19 9 16 13 -2 4 10 18 27 31 17 13 59 50 94 82 34 32 64 57 66 55 2
-2 23 17 47 42 25 25 41 38 37 30 -4 -8 9 3 29 25 21 22 34 33 30 25 -4 -9 -1
-8 8 3 8 9 19 17 25 17 5 0 12 7 16 15 3 8 12 15 20 15 8 0 21 8 28 18 7 10
27 25 45 32 17 8 29 18 27 22 -3 4 0 8 7 8 6 0 18 8 26 18 8 9 12 11 8 5 -3
-7 -1 -13 4 -13 6 0 11 4 11 9 0 4 25 25 55 45 30 20 55 34 55 31 0 -3 6 -1
13 5 30 25 89 60 102 60 8 0 15 4 15 8 0 5 16 14 35 22 19 8 35 18 35 22 0 5
5 6 10 3 6 -3 10 -1 10 6 0 7 3 9 7 6 3 -4 15 0 25 10 10 9 18 12 18 7 0 -5 4
-3 9 4 7 11 23 18 53 21 4 1 14 8 22 17 9 9 22 17 29 19 33 7 77 28 77 37 0 5
4 7 9 4 4 -3 27 3 49 14 23 11 48 20 56 20 8 0 21 6 28 13 14 12 31 18 58 21
8 0 18 6 22 11 7 10 12 12 49 14 11 0 18 5 15 9 -2 4 4 9 15 10 43 4 49 6 49
15 0 6 3 8 6 4 4 -3 22 0 40 8 21 8 34 10 34 4 0 -6 7 -3 16 5 8 9 18 16 22
17 41 5 69 12 79 21 7 5 17 7 22 4 5 -4 12 -2 16 3 3 5 14 8 25 6 11 -2 20 -1
20 3 0 4 14 9 32 10 17 2 36 6 42 11 6 4 25 7 43 6 18 -1 29 3 26 8 -3 5 3 8
13 7 11 -1 21 -1 24 0 3 1 16 3 30 6 14 2 39 7 55 10 17 3 45 7 63 8 17 0 32
5 32 10 0 4 7 5 16 2 9 -3 20 -3 26 0 6 4 29 8 52 10 79 7 91 9 98 19 5 7 8 6
8 -1 0 -6 19 -9 48 -6 26 2 106 5 177 8 72 2 138 6 148 8 9 2 17 1 17 -2 0 -4
35 -6 77 -6 43 1 84 -3 91 -8 8 -7 12 -6 12 3 0 9 3 10 8 3 4 -5 27 -10 50 -9
24 0 64 -5 88 -11 24 -6 44 -8 44 -3 0 4 9 5 20 2 11 -3 20 -9 20 -15 0 -5 8
-4 19 2 13 6 22 7 26 0 3 -5 12 -7 20 -3 8 3 15 1 15 -4 0 -6 16 -9 35 -8 24
1 39 -4 45 -14 7 -11 9 -12 10 -3 0 8 5 10 12 6 7 -4 21 -9 33 -11 40 -5 55
-9 61 -16 4 -4 19 -7 34 -7 15 0 30 -3 33 -7 4 -3 21 -8 39 -10 18 -2 36 -7
41 -12 5 -5 16 -7 25 -4 11 5 13 3 7 -7 -5 -9 -4 -11 3 -6 6 4 21 2 33 -5 17
-9 20 -8 14 3 -6 10 -5 11 6 1 7 -7 21 -13 31 -13 10 0 18 -4 18 -10 0 -5 3
-9 8 -8 17 4 72 -15 72 -25 0 -7 4 -6 10 3 8 12 10 12 10 1 0 -8 3 -12 6 -8 4
3 19 0 34 -8 15 -8 30 -11 34 -8 3 4 6 1 6 -6 0 -7 5 -9 10 -6 6 3 10 2 10 -4
0 -6 7 -8 15 -5 8 4 15 1 15 -7 0 -7 3 -10 6 -6 4 3 19 0 35 -8 15 -8 37 -16
47 -18 11 -2 27 -9 35 -15 8 -7 24 -14 35 -17 11 -2 28 -8 38 -13 22 -12 46
-20 56 -18 4 0 13 -6 20 -15 7 -9 25 -19 40 -23 15 -3 33 -12 40 -19 7 -8 19
-12 26 -9 6 2 12 -4 12 -13 0 -12 6 -15 20 -10 14 4 20 2 20 -9 0 -9 7 -13 20
-11 11 2 20 1 20 -3 0 -4 25 -21 55 -36 32 -17 52 -34 48 -40 -3 -6 -3 -8 2
-4 8 8 60 -15 87 -39 9 -8 22 -12 29 -7 8 4 10 3 5 -4 -6 -11 6 -16 27 -13 4
0 6 -2 5 -6 -2 -5 1 -9 6 -10 5 -1 12 -5 15 -10 9 -12 81 -65 81 -59 0 3 12
-6 27 -20 14 -13 28 -22 31 -19 3 3 11 -4 19 -15 8 -11 19 -20 24 -20 11 0 31
-15 57 -42 9 -10 20 -18 24 -18 7 0 48 -33 84 -67 7 -7 15 -13 19 -13 3 0 18
-11 33 -25 15 -14 35 -33 45 -43 11 -9 23 -16 28 -14 5 1 9 -2 9 -8 0 -5 19
-29 42 -52 22 -22 37 -35 33 -27 -8 12 -6 12 8 0 9 -7 17 -20 17 -29 0 -8 3
-12 6 -9 7 7 44 -30 44 -45 0 -4 6 -7 13 -6 6 2 11 -2 10 -9 -2 -7 4 -10 12
-7 8 4 15 1 15 -5 0 -6 19 -31 43 -55 23 -24 49 -53 57 -65 8 -11 21 -21 29
-21 8 0 11 -3 8 -6 -4 -4 2 -14 12 -23 10 -9 23 -26 30 -39 7 -12 17 -20 23
-16 6 4 8 3 5 -4 -4 -5 8 -22 25 -38 18 -15 32 -30 32 -33 -3 -11 23 -41 29
-34 4 3 7 -1 7 -10 0 -9 10 -23 22 -31 15 -11 18 -16 8 -17 -9 0 -6 -5 8 -11
12 -6 22 -17 22 -25 0 -7 5 -13 10 -13 6 0 10 -7 10 -15 0 -8 4 -15 9 -15 5 0
13 -10 16 -22 4 -11 19 -32 34 -46 14 -14 19 -22 11 -17 -15 9 15 -33 35 -47
7 -5 7 -8 0 -8 -7 0 -7 -3 0 -8 20 -14 50 -56 35 -47 -8 4 -5 -2 8 -14 12 -12
20 -26 17 -32 -4 -5 1 -9 10 -9 9 0 14 -4 10 -10 -3 -5 3 -18 15 -30 11 -11
16 -20 10 -20 -5 0 -1 -9 10 -20 11 -11 20 -27 20 -35 0 -8 5 -15 10 -15 6 0
10 -7 10 -15 0 -16 28 -65 43 -76 5 -3 8 -9 7 -13 -4 -12 22 -66 31 -66 5 0 8
-3 7 -7 -3 -17 15 -63 23 -58 4 3 6 -4 4 -15 -2 -11 1 -20 6 -20 6 0 8 -4 5
-9 -4 -5 -2 -11 4 -13 5 -1 11 -12 13 -23 2 -11 11 -35 20 -52 10 -18 15 -33
12 -33 -3 0 0 -10 7 -22 6 -13 13 -32 15 -43 2 -10 7 -22 11 -25 4 -3 9 -16
11 -30 1 -14 6 -27 10 -30 5 -5 7 -13 13 -62 1 -10 6 -18 10 -18 4 0 8 -8 8
-17 0 -10 16 -36 35 -58 32 -35 41 -39 85 -41 28 -1 50 3 50 8 0 5 4 7 9 4 5
-4 28 12 51 34 23 22 39 40 37 40 -3 0 -2 13 3 30 5 16 5 32 0 35 -4 3 -7 13
-5 23 1 9 -3 28 -11 42 -13 26 -28 80 -26 93 1 4 -3 7 -10 7 -6 0 -8 3 -5 7 4
3 1 13 -6 21 -8 11 -8 14 0 9 6 -4 2 11 -9 34 -10 22 -20 49 -21 60 -1 10 -5
19 -10 19 -4 0 -5 5 -2 10 3 6 2 10 -4 10 -6 0 -8 7 -5 15 4 8 1 15 -5 15 -6
0 -11 9 -11 19 0 11 -4 21 -9 23 -5 2 -11 14 -13 28 -1 14 -9 31 -16 39 -7 7
-11 20 -8 27 3 8 1 14 -4 14 -6 0 -10 6 -10 14 0 8 -5 16 -10 18 -6 2 -12 13
-13 25 0 13 -7 25 -15 28 -7 3 -10 9 -7 15 3 5 1 10 -5 10 -7 0 -10 6 -7 14 3
8 -1 17 -9 20 -8 3 -14 15 -14 26 0 11 -4 20 -10 20 -5 0 -10 5 -10 10 0 6
-11 28 -25 50 -14 22 -22 40 -19 40 4 0 -3 8 -14 19 -12 10 -19 20 -17 23 3 3
-1 11 -10 18 -8 7 -15 16 -15 21 0 4 -13 28 -30 52 -16 25 -30 48 -30 51 0 3
-9 16 -20 28 -10 13 -19 27 -19 31 0 5 -8 16 -18 25 -10 9 -25 26 -33 36 -13
18 -13 19 0 11 8 -4 3 3 -11 17 -15 14 -30 35 -34 46 -3 12 -13 22 -20 22 -8
0 -17 5 -21 12 -5 7 -3 8 6 3 7 -4 2 6 -10 23 -13 17 -28 28 -33 25 -6 -3 -7
-1 -3 5 3 6 0 17 -8 25 -8 8 -12 18 -8 22 4 5 1 5 -6 1 -7 -4 -15 0 -19 11 -3
10 -13 25 -22 34 -42 42 -81 89 -81 98 0 5 -9 13 -21 16 -11 4 -18 9 -16 12 3
2 -17 27 -43 53 -27 27 -57 61 -66 75 -9 14 -22 25 -29 25 -8 0 -17 9 -20 20
-4 11 -10 18 -15 15 -8 -5 -25 24 -21 38 1 5 -3 6 -9 2 -5 -3 -13 1 -16 9 -3
9 -10 13 -15 10 -5 -3 -9 2 -9 10 0 9 -5 16 -11 16 -6 0 -35 25 -65 55 -30 30
-58 56 -62 57 -4 2 -6 6 -4 11 1 4 -5 7 -13 7 -8 0 -15 5 -15 11 0 5 -4 8 -9
5 -5 -3 -11 1 -15 9 -3 8 -13 15 -21 15 -9 0 -13 5 -10 10 3 6 2 10 -4 10 -6
0 -21 11 -35 25 -14 14 -29 25 -33 25 -5 0 -15 9 -23 20 -8 11 -23 20 -33 20
-10 0 -15 5 -12 10 3 6 1 10 -4 10 -6 0 -20 9 -31 20 -11 11 -27 20 -36 20 -8
0 -12 5 -9 10 3 6 0 10 -7 10 -7 0 -26 11 -42 25 -16 14 -32 25 -36 25 -4 0
-17 9 -30 20 -12 11 -27 17 -31 14 -5 -3 -9 1 -9 8 0 7 -18 22 -40 32 -22 11
-40 23 -40 28 0 5 -4 6 -10 3 -5 -3 -10 -1 -10 5 0 6 -4 8 -10 5 -5 -3 -10 -1
-10 4 0 6 -6 11 -14 11 -7 0 -19 7 -26 15 -7 8 -16 13 -20 10 -4 -3 -11 2 -14
11 -3 8 -10 12 -16 9 -5 -3 -10 -1 -10 4 0 6 -7 11 -15 11 -8 0 -15 4 -15 9 0
5 -7 12 -16 15 -10 4 -13 2 -8 -7 4 -6 -4 -2 -18 11 -13 12 -28 19 -31 15 -4
-3 -7 -1 -7 5 0 7 -7 12 -15 12 -8 0 -15 5 -15 11 0 5 -4 7 -10 4 -5 -3 -10
-1 -10 5 0 6 -4 8 -10 5 -5 -3 -10 -1 -10 4 0 6 -3 10 -7 10 -15 -3 -73 23
-73 33 0 5 -4 6 -10 3 -5 -3 -10 -1 -10 6 0 7 -3 9 -7 6 -3 -4 -13 -1 -21 6
-13 10 -14 9 -8 -3 4 -8 -2 -4 -14 10 -12 14 -19 19 -15 11 5 -9 0 -8 -18 4
-14 9 -28 17 -31 17 -20 0 -45 12 -40 19 3 5 -2 6 -10 3 -9 -3 -16 -2 -16 3 0
5 -10 10 -22 10 -13 1 -24 7 -26 12 -2 5 -10 7 -18 4 -8 -3 -14 0 -14 6 0 7
-8 11 -17 9 -10 -2 -17 2 -16 9 2 7 -7 10 -22 7 -15 -3 -25 0 -25 7 0 6 -7 8
-16 5 -8 -3 -12 -2 -9 4 4 6 -7 10 -24 10 -17 0 -31 4 -31 8 0 9 -9 11 -54 15
-13 1 -22 5 -19 10 2 4 -8 7 -22 7 -17 0 -24 4 -19 12 5 7 2 9 -7 6 -8 -3 -25
-1 -39 5 -14 5 -36 12 -50 14 -13 2 -27 7 -30 11 -3 4 -16 8 -30 10 -14 1 -31
3 -37 4 -7 1 -13 4 -13 8 0 4 -6 7 -12 7 -28 2 -74 11 -90 18 -9 4 -22 4 -28
0 -5 -3 -10 -2 -10 4 0 5 -8 8 -17 6 -10 -1 -24 2 -30 7 -7 6 -19 8 -27 5 -8
-3 -17 -3 -20 1 -4 3 -14 7 -24 9 -36 6 -88 14 -117 18 -16 3 -53 8 -81 13
-28 5 -59 7 -68 6 -9 -1 -16 1 -16 5 0 3 -24 7 -52 8 -81 2 -108 6 -108 18 0
6 -3 7 -8 0 -8 -11 -114 -16 -107 -4 3 4 -10 4 -28 0 -30 -6 -51 -5 -117 2
-14 1 -35 -1 -47 -5 -13 -4 -25 -3 -29 3 -4 7 -10 6 -19 -1 -9 -8 -15 -8 -20
0 -7 12 -22 13 -29 2z"/>
<path d="M4987 9296 c-15 -5 -32 -22 -39 -37 -7 -15 -16 -25 -20 -23 -4 3 -7
-5 -7 -18 1 -13 -1 -33 -4 -45 -3 -13 -2 -25 3 -28 5 -3 6 -16 2 -28 -5 -12
-7 -32 -6 -44 0 -13 -2 -23 -6 -23 -4 0 -6 -13 -4 -30 2 -16 0 -30 -4 -30 -4
0 -9 -12 -10 -27 -1 -15 -8 -30 -15 -35 -6 -4 -8 -8 -3 -8 5 0 2 -8 -5 -17
-12 -15 -12 -16 1 -8 11 6 10 3 -2 -12 -10 -11 -18 -25 -18 -31 0 -7 -5 -12
-12 -12 -6 0 -9 -2 -6 -5 7 -8 -76 -93 -85 -88 -5 3 -14 -2 -20 -10 -7 -8 -30
-21 -52 -28 -43 -14 -44 -14 -92 -22 -17 -3 -37 -8 -44 -13 -8 -5 -9 -3 -4 6
5 8 4 11 -2 7 -5 -3 -24 -9 -42 -12 -31 -5 -103 -65 -78 -65 7 0 8 -3 2 -8
-15 -10 -12 -61 3 -71 8 -5 13 -11 13 -15 -3 -20 0 -26 9 -21 6 3 10 0 10 -8
0 -7 6 -14 13 -15 6 -1 28 -4 47 -6 19 -2 60 -7 90 -11 30 -3 60 -11 67 -17 7
-5 17 -7 23 -3 5 3 10 -1 10 -9 0 -10 6 -13 15 -10 8 4 17 -1 21 -10 3 -9 12
-16 20 -16 8 0 14 -4 14 -10 0 -5 3 -9 8 -7 4 1 17 -8 30 -20 12 -13 19 -23
16 -23 -3 0 6 -14 20 -31 14 -17 26 -39 26 -50 0 -10 4 -19 9 -19 7 0 23 -45
25 -75 1 -5 6 -13 11 -17 6 -5 6 -8 -2 -8 -6 0 -9 -9 -6 -20 3 -11 9 -20 14
-20 5 0 4 -12 -2 -27 -6 -17 -6 -30 0 -36 7 -7 7 -16 0 -29 -6 -12 -6 -18 1
-18 5 0 10 -8 10 -19 0 -24 47 -71 74 -72 42 -2 70 3 93 18 13 9 21 18 19 21
-3 2 2 11 10 19 8 8 12 19 9 24 -4 5 -2 9 2 9 5 0 9 19 9 43 1 23 4 60 9 82 4
22 8 48 8 58 1 9 5 17 10 17 4 0 6 4 3 8 -3 5 1 20 9 35 7 14 11 28 7 31 -3 3
0 6 6 6 6 0 13 9 17 19 8 25 88 111 103 111 7 0 12 4 12 9 0 8 37 24 53 22 4
-1 7 4 7 10 0 5 5 7 10 4 6 -3 10 -2 10 3 0 9 17 12 58 12 13 0 21 3 18 8 -2
4 14 6 35 6 46 -2 111 15 103 28 -3 4 -1 8 5 8 16 0 39 51 37 81 -3 43 -46 91
-84 92 -17 1 -32 4 -32 7 0 5 -28 8 -122 13 -10 1 -18 5 -18 9 0 4 -7 8 -15 8
-8 0 -15 5 -15 12 0 6 -3 8 -7 5 -3 -4 -12 -2 -20 4 -7 6 -13 8 -13 4 0 -5 -8
2 -19 13 -10 12 -21 19 -25 15 -3 -3 -6 -1 -6 6 0 6 -16 27 -35 47 -19 19 -38
46 -41 59 -3 14 -10 25 -15 25 -5 0 -9 8 -9 18 0 10 -5 23 -12 30 -7 7 -9 12
-5 12 4 0 3 10 -4 21 -6 12 -7 19 -1 15 5 -3 4 11 -3 32 -7 20 -9 39 -5 42 5
3 5 12 0 19 -4 8 -6 21 -2 29 4 11 1 13 -9 8 -8 -4 -5 0 5 8 20 16 20 16 0 17
-10 0 -13 3 -7 6 9 3 10 10 4 21 -4 9 -7 27 -6 40 1 12 -2 22 -7 22 -5 0 -6 5
-3 10 3 6 -1 10 -9 10 -9 0 -16 7 -16 15 0 14 -12 19 -32 16 -5 0 -8 2 -8 7 0
10 -50 9 -83 -2z m59 -553 c-2 -3 4 -13 15 -24 10 -10 19 -27 19 -36 0 -15 2
-16 10 -3 9 13 10 13 10 0 0 -8 10 -26 21 -40 11 -14 18 -18 14 -10 -4 10 -1
9 8 -2 8 -10 19 -18 26 -18 6 0 11 -5 11 -11 0 -5 4 -8 8 -5 14 8 10 -19 -5
-32 -7 -7 -13 -10 -13 -7 0 4 -27 -21 -60 -54 -33 -34 -60 -66 -60 -71 0 -6
-5 -10 -11 -10 -5 0 -7 -6 -3 -12 5 -9 2 -9 -9 1 -9 7 -17 20 -17 29 0 8 -25
39 -55 68 -30 30 -55 51 -55 48 0 -3 -8 2 -17 12 -13 13 -14 19 -5 22 7 2 9 9
6 14 -4 7 -2 8 4 4 18 -11 118 83 128 120 3 11 12 21 20 21 8 0 12 -2 10 -4z"/>
<path d="M3580 8423 c0 -7 -7 -10 -15 -7 -8 4 -15 2 -15 -4 0 -5 -11 -13 -25
-16 -14 -4 -23 -11 -20 -16 3 -6 2 -10 -3 -10 -16 0 -46 -73 -47 -117 -1 -24
2 -43 7 -43 5 0 6 -5 3 -10 -4 -6 -1 -18 6 -26 6 -8 9 -17 6 -20 -8 -9 16 -33
27 -26 5 3 6 1 3 -4 -25 -41 145 -86 190 -51 7 5 18 5 24 1 8 -4 9 -3 5 4 -4
7 -2 12 3 12 21 0 96 92 85 103 -3 3 0 15 6 27 7 13 8 26 2 33 -5 7 -8 21 -6
31 4 30 -46 113 -60 99 -3 -4 -6 1 -6 11 0 9 -4 14 -10 11 -5 -3 -10 -1 -10 5
0 7 -6 10 -14 7 -8 -3 -16 -2 -18 4 -5 14 -118 17 -118 2z"/>
<path d="M6384 8414 c-17 -7 -46 -31 -65 -54 -34 -40 -55 -90 -39 -90 5 0 5
-12 1 -27 -7 -27 8 -93 21 -93 5 0 8 -7 8 -15 0 -8 5 -15 10 -15 6 0 10 -7 10
-16 0 -8 4 -13 9 -9 5 3 16 -2 25 -10 9 -9 24 -18 35 -20 11 -2 30 -9 42 -15
14 -8 19 -8 15 -1 -7 11 -1 13 47 13 15 1 27 5 27 9 0 5 6 9 14 9 18 0 87 56
79 64 -3 3 -1 6 5 6 27 0 31 114 5 170 -20 44 -81 99 -105 95 -10 -2 -16 0
-13 6 9 14 -93 9 -131 -7z"/>
<path d="M3056 7872 c-2 -1 -18 -4 -35 -7 -18 -2 -40 -10 -49 -17 -13 -11 -14
-11 -8 0 6 10 0 10 -22 -2 -17 -9 -38 -16 -47 -16 -9 0 -18 -7 -21 -15 -4 -8
-10 -13 -14 -10 -5 3 -24 -10 -43 -29 -20 -19 -38 -32 -40 -29 -3 2 -13 -14
-23 -36 -10 -22 -20 -39 -22 -36 -6 6 -31 -26 -32 -40 0 -5 5 -3 10 5 5 8 10
10 10 4 0 -15 -25 -36 -33 -28 -3 4 -4 -5 -1 -19 2 -14 -1 -29 -6 -32 -8 -5
-7 -12 2 -23 7 -9 8 -13 2 -9 -8 4 -12 -7 -13 -36 -2 -59 -5 -75 -21 -90 -10
-9 -11 -9 -6 1 9 15 -6 16 -22 0 -9 -9 -12 -9 -12 1 0 9 -4 10 -12 4 -7 -6
-27 -10 -45 -9 -17 0 -29 -3 -25 -8 3 -5 -2 -7 -11 -3 -9 3 -19 2 -22 -3 -3
-5 -12 -7 -20 -3 -8 3 -15 1 -15 -4 0 -5 -12 -10 -26 -11 -14 -1 -31 -5 -37
-9 -7 -4 -14 -8 -17 -9 -14 -2 -85 -40 -88 -46 -2 -5 -8 -8 -13 -8 -12 0 -73
-42 -78 -53 -2 -5 -14 -12 -28 -18 -13 -5 -22 -13 -18 -18 3 -5 -4 -12 -14
-16 -11 -3 -23 -14 -26 -25 -3 -10 -13 -21 -21 -24 -8 -3 -12 -10 -9 -16 3 -5
0 -10 -7 -10 -7 0 -22 -16 -32 -35 -11 -19 -23 -35 -28 -35 -4 0 -8 -7 -8 -15
0 -8 -5 -15 -11 -15 -5 0 -7 -4 -4 -10 3 -5 1 -10 -4 -10 -6 0 -11 -5 -11 -12
0 -6 -8 -20 -17 -31 -12 -13 -13 -17 -4 -12 9 5 6 -4 -7 -22 -12 -17 -19 -33
-15 -37 3 -3 1 -6 -6 -6 -7 0 -9 -4 -6 -10 3 -5 1 -10 -6 -10 -9 0 -9 -3 0
-14 9 -11 9 -15 0 -18 -7 -2 -13 -20 -13 -40 -1 -20 -4 -34 -8 -31 -5 2 -9 -3
-9 -11 -3 -36 -6 -52 -13 -68 -4 -9 -5 -22 -1 -29 4 -6 1 -15 -6 -20 -11 -7
-11 -9 -1 -9 8 0 10 -5 6 -12 -4 -7 -8 -44 -9 -82 0 -39 -4 -77 -8 -83 -5 -7
-5 -13 0 -13 4 0 8 -22 8 -50 0 -27 -3 -50 -8 -50 -4 0 -5 -5 -1 -12 11 -18
13 -68 2 -68 -5 0 -6 -5 -2 -12 11 -18 13 -68 2 -68 -5 0 -6 -5 -2 -12 11 -18
13 -68 2 -68 -5 0 -6 -5 -2 -12 11 -18 13 -68 2 -68 -5 0 -6 -5 -2 -12 12 -19
11 -62 0 -70 -7 -5 -6 -8 3 -8 11 0 11 -3 1 -15 -7 -8 -8 -15 -3 -15 13 0 13
-32 0 -47 -5 -8 -6 -13 0 -13 5 0 8 -21 7 -47 -2 -28 2 -51 9 -55 9 -6 9 -8 0
-8 -7 0 -10 -17 -9 -50 2 -31 -1 -50 -8 -50 -7 0 -8 -3 -1 -8 6 -4 10 -48 10
-107 -1 -56 4 -106 9 -114 9 -12 8 -13 -3 -6 -11 6 -13 3 -7 -18 3 -14 1 -29
-4 -32 -6 -4 -7 -12 -3 -18 12 -20 11 -157 -1 -157 -7 0 -7 -3 -1 -8 15 -11
18 -42 5 -57 -6 -7 -7 -15 -3 -18 4 -3 8 -70 7 -149 0 -88 4 -149 10 -157 8
-10 8 -13 0 -8 -13 8 -13 -211 0 -232 6 -10 5 -12 -3 -7 -14 9 -11 -30 3 -53
6 -10 5 -12 -3 -7 -8 5 -10 -7 -7 -43 3 -38 1 -49 -7 -44 -7 4 -6 -1 2 -11 13
-15 13 -19 0 -27 -8 -5 -9 -9 -3 -9 7 0 15 -7 18 -16 4 -10 2 -13 -6 -8 -7 5
-9 -1 -4 -19 3 -14 1 -29 -4 -32 -8 -5 -7 -11 1 -21 6 -8 8 -14 4 -14 -4 0 -2
-6 4 -14 8 -10 9 -16 1 -21 -6 -4 -7 -12 0 -24 6 -12 5 -22 -2 -29 -8 -8 -9
-12 -1 -12 7 0 8 -12 3 -35 -6 -26 -4 -39 7 -50 11 -12 11 -15 1 -15 -8 0 -9
-3 -2 -8 6 -4 11 -20 11 -37 0 -19 5 -29 12 -27 7 1 9 -2 5 -9 -8 -13 27 -129
39 -129 5 0 5 -5 2 -10 -3 -6 -1 -10 5 -10 6 0 9 -4 5 -9 -3 -5 3 -17 12 -27
10 -9 18 -22 18 -28 0 -6 11 -25 24 -43 13 -17 22 -33 20 -35 -6 -7 29 -38 43
-38 10 0 9 -3 -2 -10 -13 -8 -12 -10 3 -10 9 0 17 -4 17 -9 0 -16 92 -101 103
-94 6 3 7 1 3 -5 -4 -7 -1 -12 9 -12 9 0 14 -3 12 -8 -3 -4 17 -18 44 -31 27
-14 49 -29 49 -34 0 -4 4 -5 10 -2 5 3 10 1 10 -4 0 -6 3 -10 8 -9 9 2 40 -10
75 -29 15 -8 34 -12 42 -9 7 2 15 0 17 -6 2 -6 23 -11 45 -12 23 -1 45 -5 49
-9 4 -4 20 -7 35 -7 15 0 40 -5 55 -10 25 -10 26 -9 13 6 -13 16 -12 16 9 5
13 -7 30 -10 37 -7 8 3 15 0 17 -5 2 -7 13 -7 31 0 15 6 27 7 27 2 0 -9 55 -5
71 4 5 4 9 2 9 -3 0 -10 54 -7 71 3 5 4 9 1 9 -4 0 -13 22 -10 32 4 5 6 8 5 8
-3 0 -10 5 -10 20 -2 11 6 20 7 20 2 0 -10 54 -7 71 3 5 4 9 3 9 -2 0 -4 29
-8 65 -8 36 0 65 4 65 8 0 5 6 5 12 0 17 -9 47 -10 76 -1 12 4 22 4 22 0 0
-11 124 -8 132 3 5 7 8 7 8 0 0 -11 311 -12 329 -1 6 4 11 4 11 -1 0 -4 72 -8
159 -8 92 0 157 4 154 9 -4 5 0 6 7 1 15 -9 203 -10 218 -1 6 3 13 3 15 -1 7
-10 191 -8 207 2 9 6 11 4 5 -6 -7 -12 -6 -12 7 -1 12 9 18 10 23 2 5 -8 11
-8 19 -1 9 7 16 7 24 -1 8 -8 15 -8 27 2 10 8 15 9 15 1 0 -13 22 -10 32 4 5
6 8 5 8 -3 0 -10 5 -10 20 -2 14 8 20 8 20 0 0 -7 6 -8 19 0 14 7 21 6 24 -3
3 -9 7 -9 20 2 11 9 17 10 17 2 0 -13 22 -10 32 4 5 6 8 5 8 -4 0 -10 3 -11
13 -2 8 6 17 8 20 4 9 -9 138 -9 144 0 2 4 10 4 16 0 15 -9 49 -9 65 1 7 4 12
2 12 -4 0 -7 6 -8 19 0 12 6 22 6 25 1 7 -10 25 -9 43 2 6 4 15 2 19 -4 4 -8
9 -7 15 2 7 12 9 12 9 0 0 -10 3 -11 13 -2 8 6 17 8 20 4 10 -9 246 -10 240
-1 -2 5 6 5 19 0 29 -9 59 -9 76 1 6 5 12 4 12 0 0 -13 93 -10 103 2 6 7 10 7
13 0 4 -10 170 -12 181 -2 3 3 11 3 18 1 25 -10 115 -9 119 1 3 6 5 6 5 0 1
-11 74 -11 91 0 6 3 10 3 10 -2 0 -4 29 -8 65 -8 37 0 65 4 65 10 0 7 3 7 8 0
4 -6 52 -10 107 -10 55 0 103 4 107 10 5 6 8 5 8 -4 0 -10 3 -11 13 -2 8 6 17
8 21 4 11 -11 50 -9 58 2 5 6 8 6 8 -2 0 -8 9 -9 30 -3 17 5 30 5 30 0 0 -4 8
-7 18 -5 9 2 17 4 17 5 0 1 10 3 23 4 12 2 22 0 22 -3 0 -3 20 -6 45 -6 25 0
45 4 45 8 0 5 6 5 12 0 17 -9 47 -10 76 -1 12 4 22 3 22 -2 0 -12 22 -9 32 5
5 6 8 5 8 -3 0 -10 5 -10 20 -2 11 6 20 7 20 2 0 -12 43 -9 52 3 5 6 8 6 8 -2
0 -8 9 -9 30 -3 18 5 30 5 30 -1 0 -11 23 -7 32 6 5 6 8 5 8 -3 0 -10 5 -10
20 -2 15 8 20 8 20 -1 0 -7 7 -8 18 -4 9 4 26 7 37 6 36 -4 39 -4 85 4 25 4
56 8 70 10 14 1 33 5 42 9 9 4 22 5 28 1 5 -3 10 -1 10 5 0 6 4 9 9 5 5 -3 12
-1 16 4 3 6 13 7 22 4 10 -4 14 -2 10 4 -5 7 0 9 13 6 11 -3 20 -1 20 5 0 6
16 14 35 18 21 4 32 10 28 17 -4 6 2 8 15 5 12 -4 22 -3 22 1 0 4 12 14 28 22
15 8 36 22 46 31 11 10 23 18 28 18 4 0 21 13 36 30 16 16 32 27 35 23 4 -3 7
-1 7 4 0 6 15 27 33 45 50 54 82 92 82 101 0 4 6 12 14 16 7 5 10 14 7 20 -4
6 -2 11 4 11 8 0 24 26 35 60 1 3 12 27 24 55 12 27 23 61 24 76 1 15 6 25 11
21 5 -3 7 2 3 11 -4 10 0 20 11 26 11 7 12 11 4 11 -8 0 -10 5 -6 12 4 6 8 23
10 37 1 14 3 26 4 26 1 0 3 10 6 23 3 17 1 21 -8 16 -10 -6 -10 -5 -1 7 6 8
10 29 8 47 -1 18 2 35 7 38 5 3 4 12 -3 20 -6 8 -7 14 -2 14 11 0 11 36 0 46
-3 4 -2 15 4 25 7 14 6 19 -2 19 -8 0 -9 4 0 13 8 10 7 17 -1 25 -9 9 -9 12 0
12 8 0 9 7 2 25 -6 16 -6 25 1 25 6 0 6 6 0 19 -6 10 -7 21 -4 25 10 10 10 76
0 76 -4 0 -3 8 2 18 5 10 6 24 1 32 -4 7 -6 18 -4 24 9 26 11 86 2 86 -5 0 -4
8 1 18 5 10 6 24 2 30 -4 7 -5 33 -1 57 4 26 3 48 -4 55 -7 7 -6 10 1 10 11 0
10 37 -1 48 -3 2 -1 13 5 23 7 13 6 19 -1 19 -7 0 -8 6 -1 18 6 10 6 24 1 32
-5 8 -6 19 -2 25 10 15 8 39 -3 47 -7 5 -7 8 0 8 9 0 12 54 5 85 -1 6 -1 12 0
15 7 19 5 50 -4 50 -7 0 -7 3 -1 8 12 9 15 92 2 92 -4 0 -5 6 -1 12 12 19 12
48 0 48 -7 0 -7 3 -1 8 12 9 15 92 2 92 -4 0 -5 6 0 13 11 17 10 41 -2 49 -7
5 -7 8 0 8 11 0 11 72 0 89 -3 6 -2 11 3 11 10 0 9 36 -1 46 -3 4 -2 15 4 25
5 11 6 19 1 19 -5 0 -9 7 -9 15 0 8 5 15 10 15 5 0 4 7 -3 15 -7 8 -9 15 -4
15 5 0 9 18 9 40 0 22 -4 40 -8 40 -5 0 -5 6 0 13 12 19 12 36 2 43 -6 3 -2
12 8 21 10 8 13 12 7 9 -7 -3 -14 5 -16 19 -3 13 -2 23 1 20 9 -5 8 127 -1
141 -4 6 -5 14 -1 18 11 11 12 56 1 56 -7 0 -6 5 1 14 8 10 9 16 1 21 -6 3 -7
12 -3 18 11 17 10 81 -2 89 -6 5 -6 8 2 8 7 0 10 9 7 23 -9 42 -10 97 -2 97 5
0 4 9 -2 20 -8 14 -8 20 0 20 6 0 8 5 4 11 -3 6 -7 34 -9 63 -1 29 -5 57 -8
63 -4 6 -5 20 -2 32 2 11 0 21 -6 21 -5 0 -9 10 -9 23 0 13 -6 29 -12 36 -11
11 -10 12 2 6 12 -7 13 -6 3 7 -7 8 -10 18 -6 21 3 4 2 7 -3 7 -5 0 -11 10
-11 22 -1 13 -7 24 -12 26 -5 2 -7 10 -4 18 3 8 0 14 -7 14 -6 0 -8 5 -5 10 3
6 1 10 -5 10 -7 0 -10 7 -6 15 3 8 1 15 -4 15 -6 0 -10 7 -10 15 0 8 -4 15
-10 15 -5 0 -10 6 -10 13 0 7 -9 23 -19 34 -11 12 -17 24 -14 27 4 3 2 6 -4 6
-5 0 -18 15 -28 34 -11 19 -21 33 -24 31 -4 -1 -12 3 -19 11 -7 8 -11 14 -8
14 3 0 -6 11 -20 25 -14 14 -28 25 -31 25 -3 0 -13 8 -22 18 -27 29 -65 58
-56 43 5 -10 4 -12 -3 -7 -7 4 -12 14 -12 22 0 8 -4 12 -10 9 -5 -3 -10 -1
-10 5 0 6 -4 9 -9 5 -5 -3 -12 -1 -16 5 -4 6 -10 8 -15 5 -4 -3 -11 2 -14 11
-3 8 -10 12 -16 9 -5 -3 -10 -1 -10 5 0 6 -4 8 -10 5 -5 -3 -10 -1 -10 4 0 6
-5 11 -11 11 -5 0 -7 -6 -3 -12 4 -7 -1 -6 -12 2 -25 21 -91 43 -104 35 -5 -3
-10 -2 -10 2 0 8 -28 14 -77 16 -13 1 -23 4 -23 8 0 4 -8 6 -17 5 -15 -1 -18
12 -20 104 -2 60 -7 106 -13 108 -6 2 -8 8 -5 13 6 9 -22 58 -40 71 -5 4 -6 8
-2 8 11 0 -44 50 -55 50 -5 0 -6 5 -2 12 5 8 2 9 -9 5 -11 -4 -17 -1 -17 9 0
8 -4 13 -9 10 -4 -3 -17 1 -27 8 -12 9 -23 11 -30 5 -8 -6 -14 -4 -18 6 -4 11
-11 13 -20 8 -8 -4 -76 -6 -151 -3 -75 3 -139 2 -142 -3 -2 -4 -8 -5 -12 -3
-4 3 -54 6 -112 6 -82 2 -103 -1 -101 -12 1 -7 -4 -5 -12 5 -8 11 -17 14 -20
8 -4 -5 -16 -8 -28 -6 -11 3 -26 1 -32 -3 -6 -3 -18 -7 -26 -9 -37 -5 -118
-66 -113 -84 2 -5 -1 -9 -6 -9 -13 0 -53 -90 -47 -106 3 -7 0 -16 -5 -20 -6
-3 -9 -17 -6 -30 2 -14 -1 -24 -7 -24 -6 0 -5 -4 3 -9 9 -6 10 -11 2 -15 -6
-4 -11 -12 -11 -17 0 -6 4 -7 10 -4 7 4 7 -2 0 -19 -6 -16 -6 -27 0 -31 6 -4
5 -11 -2 -18 -7 -9 -53 -13 -147 -13 l-136 0 -37 38 c-20 21 -39 38 -43 38
-13 0 -34 28 -27 35 4 5 2 5 -4 2 -6 -3 -21 4 -35 16 -42 38 -112 87 -126 87
-7 0 -13 4 -13 8 0 5 -8 10 -17 11 -46 7 -1503 7 -1503 0 0 -4 -9 -6 -20 -4
-11 2 -20 0 -20 -5 0 -5 -8 -11 -19 -15 -10 -3 -28 -13 -39 -23 -11 -9 -35
-28 -52 -42 -17 -14 -49 -42 -71 -64 -21 -21 -39 -34 -39 -30 -1 5 -7 -2 -15
-16 -8 -14 -15 -20 -15 -15 0 6 -5 3 -10 -5 -8 -12 -45 -15 -227 -15 l-218 0
0 35 c0 19 -4 41 -8 48 -5 7 -3 12 4 12 8 0 8 4 2 13 -6 6 -9 22 -8 35 1 12
-2 22 -7 22 -4 0 -8 9 -8 19 0 11 -4 23 -10 26 -5 3 -10 15 -10 26 0 11 -4 17
-10 14 -5 -3 -10 2 -10 12 0 10 -9 25 -20 33 -11 8 -20 18 -20 23 0 13 -27 37
-34 30 -3 -4 -6 1 -6 11 0 9 -4 15 -9 11 -5 -3 -17 5 -26 17 -8 13 -17 22 -20
21 -9 -3 -45 10 -45 16 0 4 -12 8 -27 9 -15 1 -30 8 -35 15 -6 9 -8 8 -8 -2 0
-11 -3 -12 -11 -4 -6 6 -18 9 -25 6 -8 -3 -14 -1 -14 3 0 8 -127 13 -134 6z
m68 -295 c-5 -8 -3 -8 6 0 10 9 20 9 43 -4 47 -24 95 -83 83 -102 -4 -5 -2
-12 4 -16 7 -4 7 -12 0 -24 -8 -16 -24 -18 -150 -17 -150 2 -164 6 -153 50 2
12 5 26 5 33 1 7 8 15 15 17 8 3 11 10 8 16 -3 5 -1 10 6 10 6 0 20 9 30 21
10 11 23 18 28 14 6 -3 11 -2 11 3 0 6 16 10 35 10 23 0 33 -4 29 -11z m4019
-45 c10 -1 16 -6 12 -11 -3 -5 -1 -12 5 -16 7 -4 7 -12 0 -25 -7 -13 -7 -21 0
-25 7 -4 7 -12 0 -25 -7 -14 -18 -18 -40 -15 -16 2 -32 -1 -36 -6 -3 -5 -10
-6 -16 -3 -6 4 -95 8 -197 9 -102 2 -188 3 -191 4 -5 1 -5 92 -1 111 1 4 417
6 464 2z m-2723 -175 c0 -4 6 -5 13 0 17 11 110 11 125 0 7 -6 12 -6 12 0 0
10 126 11 136 0 4 -3 12 -3 18 0 16 10 136 10 136 0 0 -4 6 -5 13 0 17 11 61
10 69 -2 5 -7 8 -6 8 1 0 9 51 11 70 4 3 -1 9 -2 15 0 41 8 75 6 75 -4 0 -7 4
-6 9 2 11 18 12 18 38 4 12 -7 24 -8 27 -4 6 10 77 9 94 -1 6 -5 12 -4 12 0 0
11 90 10 107 0 6 -4 14 -3 17 2 6 9 69 7 85 -4 5 -3 12 -2 15 3 6 10 66 9 84
-1 6 -5 12 -4 12 0 0 7 95 10 110 3 3 -1 9 -2 13 -1 4 1 10 -6 13 -14 4 -8 11
-15 17 -15 6 0 31 -22 56 -48 26 -27 54 -51 64 -55 10 -4 16 -11 12 -16 -3 -5
4 -12 15 -16 11 -3 20 -11 20 -16 0 -5 6 -9 13 -9 7 0 18 -9 25 -21 7 -11 19
-18 27 -16 7 3 16 3 19 0 3 -3 43 -6 88 -6 52 1 86 -3 90 -11 6 -8 8 -8 8 1 0
8 73 12 280 12 154 0 285 3 290 6 6 3 10 3 10 -2 0 -4 143 -7 317 -6 229 2
320 -1 331 -9 10 -9 15 -9 22 1 4 7 10 9 13 4 3 -5 22 -9 41 -8 20 1 36 -2 36
-8 0 -5 7 -7 15 -3 8 3 15 2 15 -2 0 -4 10 -8 22 -9 11 -1 24 -7 28 -13 4 -6
16 -12 28 -13 11 0 18 -5 16 -9 -3 -4 2 -8 10 -8 9 0 21 -9 28 -20 7 -11 21
-20 30 -20 10 0 18 -4 18 -8 0 -4 17 -26 38 -48 21 -22 36 -46 34 -53 -3 -8 0
-11 7 -7 6 4 18 -9 28 -34 10 -22 21 -40 26 -40 4 0 5 -4 2 -10 -3 -5 -1 -10
5 -10 7 0 10 -7 6 -15 -3 -8 -1 -15 4 -15 6 0 10 -9 10 -20 0 -11 4 -20 8 -20
7 0 13 -27 15 -72 1 -10 5 -18 9 -18 5 0 4 -8 -1 -19 -6 -10 -8 -21 -4 -24 3
-4 8 -24 10 -45 l4 -38 -871 0 c-478 0 -870 3 -870 8 0 4 -7 8 -16 8 -8 0 -12
5 -9 10 3 6 -1 10 -9 10 -9 0 -16 5 -16 10 0 6 -7 10 -15 10 -8 0 -15 4 -15 8
0 8 -53 42 -67 44 -5 0 -14 9 -22 20 -7 11 -19 17 -27 14 -8 -3 -14 1 -14 9 0
9 -6 12 -17 8 -11 -4 -14 -3 -9 5 5 8 0 12 -13 12 -12 0 -21 5 -21 10 0 6 -7
10 -16 10 -8 0 -23 7 -31 16 -9 8 -24 13 -35 11 -10 -3 -16 -2 -14 1 2 4 -2
13 -10 20 -8 7 -14 10 -14 7 0 -5 -82 25 -90 34 -5 7 -27 13 -50 15 -8 0 -19
7 -23 14 -5 7 -13 10 -18 6 -5 -3 -16 0 -24 6 -8 7 -15 9 -15 5 0 -4 -6 -2
-14 4 -8 7 -20 11 -28 10 -24 -3 -39 1 -34 9 2 4 -13 7 -35 7 -21 0 -39 2 -39
6 0 6 -5 7 -66 13 -23 2 -46 6 -50 9 -10 5 -34 7 -134 10 -38 1 -70 5 -70 10
0 5 -6 4 -14 -2 -10 -8 -16 -9 -21 -1 -4 6 -12 7 -24 1 -9 -5 -23 -6 -31 -1
-7 4 -23 5 -34 1 -12 -4 -47 -7 -78 -7 -32 1 -58 -1 -58 -4 0 -3 -21 -6 -47
-7 -25 -1 -49 -5 -52 -10 -3 -4 -26 -8 -51 -8 -25 0 -50 -4 -57 -8 -7 -5 -16
-6 -22 -3 -5 3 -11 0 -14 -8 -3 -7 -18 -12 -36 -11 -17 1 -31 -2 -31 -7 0 -5
-4 -7 -9 -3 -5 3 -15 -1 -23 -8 -7 -8 -19 -12 -27 -9 -7 2 -17 -2 -22 -9 -7
-12 -9 -12 -9 0 0 11 -4 10 -20 -4 -10 -9 -26 -15 -35 -11 -9 3 -13 2 -10 -4
3 -6 -3 -10 -14 -10 -12 0 -21 -4 -21 -10 0 -6 -3 -9 -7 -9 -5 1 -11 0 -15 -1
-5 -1 -11 -3 -15 -4 -5 -1 -28 -13 -53 -26 -25 -13 -48 -23 -52 -22 -5 1 -8
-2 -8 -8 0 -6 -6 -9 -12 -8 -7 2 -12 -2 -11 -9 2 -7 -6 -10 -17 -8 -12 2 -18
0 -15 -5 3 -5 -5 -12 -17 -16 -13 -4 -25 -10 -28 -15 -3 -4 -12 -9 -20 -11 -8
-2 -21 -11 -28 -21 -7 -9 -17 -15 -22 -12 -5 3 -14 -4 -20 -15 -6 -11 -15 -18
-19 -16 -4 3 -18 -6 -31 -19 -13 -13 -27 -22 -31 -19 -5 3 -9 -1 -9 -9 0 -11
-141 -13 -887 -14 -861 0 -932 3 -890 29 9 6 9 8 -1 8 -9 0 -10 5 -2 19 7 14
7 22 0 26 -7 4 -8 11 -1 18 5 7 11 26 14 42 2 17 7 38 12 48 4 10 5 21 1 24
-3 4 1 15 11 25 13 14 13 18 2 18 -10 1 -8 5 5 15 11 8 16 15 12 15 -5 0 -3 7
4 15 6 8 9 19 5 25 -4 6 -1 9 7 8 7 -2 12 5 12 15 -1 9 4 17 12 17 8 0 15 5
15 10 1 6 2 14 3 18 0 4 16 22 33 40 18 17 33 36 33 42 0 5 3 9 8 8 4 -2 8 1
9 6 1 5 10 14 21 20 44 26 98 54 107 57 6 1 21 8 34 15 14 7 28 11 33 8 4 -3
8 0 8 6 0 6 4 8 10 5 5 -3 19 -1 30 5 14 8 20 8 20 0 0 -6 5 -8 13 -3 22 13
49 14 42 1 -4 -7 1 -4 9 6 9 11 16 16 16 10 0 -9 281 -9 307 0 7 3 13 2 13 -2
0 -6 993 -6 1057 0 12 1 19 6 17 10 -3 4 1 8 9 8 8 0 29 14 46 32 17 17 31 29
31 26 0 -3 22 17 49 43 28 27 54 49 60 49 5 0 16 8 23 18 23 33 108 63 108 39z
m849 -734 c3 -4 24 -9 46 -10 93 -6 115 -8 115 -14 0 -5 93 -33 115 -34 6 -1
24 -9 41 -18 17 -9 34 -13 37 -10 4 3 9 -1 13 -10 3 -9 12 -13 20 -10 8 3 14
0 14 -7 0 -7 7 -10 15 -6 8 3 15 1 15 -4 0 -6 9 -10 20 -10 11 0 20 -5 20 -11
0 -5 4 -8 8 -5 5 3 18 -2 28 -12 11 -9 26 -18 34 -20 8 -2 18 -9 22 -15 4 -6
10 -8 14 -4 4 4 17 -4 28 -16 12 -13 28 -21 35 -19 8 3 11 0 7 -7 -5 -7 1 -11
14 -11 12 0 18 -4 15 -10 -5 -9 15 -15 37 -11 5 0 7 -4 5 -10 -1 -6 7 -16 18
-22 10 -7 36 -29 57 -49 21 -21 38 -34 38 -31 0 3 8 -4 19 -15 10 -12 21 -19
25 -15 3 3 6 1 6 -5 0 -6 19 -30 43 -55 63 -66 90 -100 106 -130 8 -15 18 -27
23 -27 4 0 8 -7 8 -15 0 -8 5 -15 10 -15 6 0 10 -7 10 -15 0 -8 5 -15 10 -15
6 0 10 -7 10 -15 0 -8 5 -15 10 -15 6 0 10 -9 10 -20 0 -11 5 -20 10 -20 6 0
10 -6 10 -14 0 -8 7 -17 16 -20 8 -3 13 -10 10 -15 -9 -14 24 -72 37 -64 8 4
7 1 -1 -9 -8 -10 -9 -19 -3 -22 18 -11 41 -66 28 -67 -8 0 -8 -2 1 -6 6 -2 12
-13 12 -23 0 -10 5 -22 10 -25 6 -4 8 -11 5 -16 -4 -5 -2 -9 4 -9 5 0 8 -11 6
-25 -1 -14 2 -25 6 -25 5 0 9 -11 9 -24 0 -14 4 -27 9 -30 5 -4 8 -17 6 -31
-1 -14 1 -27 5 -30 4 -2 8 -17 8 -32 2 -38 6 -56 15 -70 5 -8 3 -13 -4 -13 -8
0 -8 -4 -2 -12 6 -7 9 -32 8 -56 -1 -24 1 -45 5 -47 7 -5 4 -90 -4 -103 -3 -6
-2 -14 4 -17 8 -5 7 -12 -2 -23 -11 -13 -11 -14 1 -7 11 6 12 5 5 -6 -8 -13
-12 -47 -15 -121 -1 -16 -6 -28 -11 -28 -6 0 -7 -7 -4 -16 3 -9 3 -21 -1 -27
-4 -7 -8 -19 -9 -27 -1 -25 -15 -74 -25 -94 -8 -14 -8 -16 3 -10 10 6 11 5 1
-7 -7 -9 -14 -26 -16 -38 -2 -13 -10 -27 -18 -32 -12 -7 -12 -9 0 -9 11 0 10
-4 -5 -16 -10 -8 -13 -13 -6 -9 7 4 5 -8 -7 -28 -11 -19 -17 -38 -14 -41 4 -3
1 -6 -5 -6 -7 0 -12 -3 -11 -7 3 -18 -14 -52 -22 -47 -5 3 -6 -2 -3 -10 3 -9
1 -16 -6 -16 -6 0 -9 -4 -5 -9 3 -5 1 -12 -5 -16 -6 -4 -7 -11 -4 -17 4 -6 2
-8 -3 -5 -10 7 -28 -20 -25 -35 1 -5 -3 -8 -9 -8 -5 0 -8 -4 -4 -9 3 -5 -4
-16 -15 -24 -11 -7 -17 -17 -13 -20 3 -4 1 -7 -6 -7 -7 0 -9 -4 -6 -10 3 -5 1
-10 -4 -10 -6 0 -10 -3 -9 -7 2 -8 -33 -51 -84 -105 -14 -15 -23 -28 -20 -28
4 0 -1 -5 -11 -11 -9 -6 -15 -14 -12 -20 6 -8 -8 -13 -28 -10 -4 0 -6 -3 -5
-8 3 -9 -87 -101 -99 -101 -5 0 -22 -15 -40 -34 -17 -19 -34 -32 -37 -29 -3 3
-15 -6 -27 -20 -11 -15 -26 -27 -34 -27 -7 0 -15 -4 -17 -9 -1 -5 -10 -11 -18
-13 -8 -2 -19 -9 -25 -15 -15 -19 -126 -73 -137 -67 -4 3 -7 0 -6 -6 2 -7 -4
-14 -12 -15 -21 -5 -84 -29 -90 -35 -5 -5 -21 -10 -45 -14 -5 -1 -15 -5 -21
-8 -6 -4 -26 -10 -45 -13 -19 -3 -36 -11 -38 -17 -2 -6 -7 -5 -12 3 -6 10 -9
10 -9 2 0 -7 -6 -10 -14 -7 -8 3 -17 0 -21 -6 -4 -6 -15 -8 -26 -5 -10 4 -19
2 -19 -3 0 -5 -20 -8 -44 -8 -24 1 -42 -2 -40 -6 2 -4 -13 -7 -33 -7 -76 -1
-182 -9 -193 -16 -5 -3 -10 -1 -10 6 0 9 -3 9 -14 0 -11 -9 -16 -9 -21 0 -6 8
-10 7 -16 -2 -5 -8 -9 -9 -9 -4 0 6 -30 12 -67 13 -38 2 -69 7 -71 13 -2 5
-11 5 -23 -1 -10 -6 -19 -7 -19 -2 0 5 -11 10 -25 11 -47 3 -55 4 -55 11 0 3
-10 7 -22 8 -32 2 -60 8 -80 16 -9 4 -23 9 -32 10 -8 1 -19 5 -22 9 -4 4 -16
7 -26 7 -10 0 -18 5 -18 10 0 6 -5 10 -11 10 -5 0 -7 -6 -3 -12 4 -8 0 -7 -12
2 -34 26 -65 41 -74 35 -6 -4 -10 -1 -10 4 0 6 -7 11 -15 11 -8 0 -15 4 -15 9
0 9 -38 24 -53 22 -4 -1 -10 6 -13 14 -4 8 -14 15 -23 15 -9 0 -32 13 -51 30
-19 16 -39 29 -43 30 -4 0 -13 5 -20 10 -48 41 -62 50 -74 50 -8 0 -11 5 -8
10 3 6 -6 15 -20 20 -14 5 -23 14 -20 20 3 5 0 10 -8 10 -8 0 -22 11 -33 24
-10 14 -21 23 -26 20 -4 -3 -8 2 -8 11 0 9 -4 14 -8 11 -5 -3 -15 6 -22 19 -7
14 -22 27 -32 31 -10 3 -16 9 -14 13 3 4 -6 15 -20 25 -13 11 -24 23 -24 29 0
5 -8 17 -18 26 -22 19 -47 62 -44 74 1 5 -2 6 -7 3 -5 -4 -15 7 -23 24 -7 16
-16 30 -19 30 -4 0 -9 9 -12 21 -4 13 -10 18 -18 13 -8 -4 -10 -3 -5 5 4 6 0
23 -9 37 -9 13 -13 29 -10 34 3 6 0 10 -8 10 -7 0 -14 6 -15 13 -1 23 -33 102
-44 108 -5 3 -9 9 -9 13 3 23 0 36 -8 31 -6 -3 -8 3 -6 15 2 11 -1 22 -6 25
-5 4 -7 10 -4 15 3 5 1 11 -5 15 -6 4 -8 11 -5 16 4 5 2 9 -3 9 -6 0 -8 9 -5
20 3 11 1 20 -4 20 -5 0 -10 6 -10 13 -3 46 -9 67 -17 67 -6 0 -5 5 2 12 8 8
8 17 1 31 -6 11 -12 46 -13 78 0 33 -4 59 -8 59 -8 0 -3 34 8 52 4 7 3 8 -5 4
-12 -8 -9 33 5 55 4 7 3 9 -3 6 -6 -4 -9 13 -9 43 1 26 4 46 9 43 9 -6 9 1 -2
30 -6 14 -7 28 -3 31 7 8 11 28 14 81 2 22 5 42 8 45 5 5 30 108 33 140 1 8 8
19 15 23 7 5 9 13 6 19 -4 6 0 14 7 19 12 7 12 9 0 9 -11 0 -10 5 4 20 10 11
15 20 10 20 -4 0 -2 7 5 15 6 8 9 18 6 24 -3 5 1 12 10 15 8 3 12 10 9 16 -3
5 -1 10 5 10 6 0 9 4 5 9 -3 5 -1 12 5 16 6 4 8 11 5 16 -4 5 -2 9 2 9 9 0 37
59 34 73 0 4 4 7 9 7 6 0 10 6 10 13 0 7 9 23 20 35 12 12 18 22 14 22 -4 0 5
14 22 32 16 17 22 28 14 24 -8 -4 -4 2 10 14 14 12 25 26 25 31 0 4 10 17 23
29 12 11 22 25 22 31 0 6 5 7 10 4 6 -3 10 -1 10 6 0 6 10 20 22 30 11 11 19
19 16 19 -3 0 12 18 34 40 22 22 44 37 49 34 5 -3 9 -2 8 3 -3 19 2 34 10 29
5 -3 25 10 45 30 20 20 36 33 36 28 0 -4 8 3 19 14 10 12 20 19 23 16 3 -3 14
5 25 18 10 13 25 24 33 26 8 2 19 10 23 18 5 8 12 12 18 9 5 -4 16 1 25 9 8 9
21 16 28 16 7 0 21 9 31 20 10 11 22 17 26 14 5 -3 22 4 38 15 15 11 31 17 35
13 4 -3 10 -1 14 6 5 6 17 13 29 15 12 1 27 8 35 14 7 6 21 9 31 8 9 -2 17 2
17 8 0 5 3 7 7 4 3 -4 11 -2 18 3 6 5 22 12 36 14 13 3 24 5 24 6 0 1 11 3 25
6 14 2 32 7 40 11 19 8 65 15 112 16 21 1 38 4 38 7 0 3 17 7 37 8 21 2 38 4
39 5 7 6 308 -3 313 -10z m-1663 -405 c-1 -7 -6 -20 -11 -28 -9 -15 -11 -20
-14 -40 0 -5 -7 -9 -13 -7 -7 1 -14 -8 -16 -20 -2 -13 -8 -23 -13 -23 -5 0
-14 -11 -19 -25 -5 -14 -15 -25 -21 -25 -6 0 -9 -7 -5 -15 3 -8 1 -15 -5 -15
-6 0 -7 -4 -4 -10 3 -5 2 -10 -3 -10 -9 0 -37 -50 -34 -62 1 -5 -3 -8 -8 -8
-6 0 -10 -9 -10 -19 0 -11 -5 -23 -10 -26 -6 -4 -7 -11 -4 -17 4 -6 2 -8 -4
-4 -8 5 -26 -30 -37 -74 -1 -3 -8 -18 -15 -35 -7 -16 -12 -36 -11 -42 1 -7 -3
-13 -8 -13 -5 0 -8 -9 -6 -20 2 -11 -1 -20 -6 -20 -6 0 -7 -4 -4 -10 3 -5 2
-10 -4 -10 -6 0 -8 -7 -5 -15 4 -8 2 -15 -3 -15 -5 0 -9 -10 -10 -22 -1 -13
-4 -36 -8 -53 -3 -16 -7 -38 -8 -47 -1 -10 -5 -18 -10 -18 -5 0 -5 -9 -2 -20
3 -11 3 -20 -2 -20 -4 0 -8 -17 -8 -38 0 -20 -4 -43 -9 -49 -4 -7 -6 -13 -3
-13 3 0 1 -16 -3 -35 -4 -19 -4 -37 1 -40 4 -3 5 -16 0 -28 -13 -36 -3 -330
13 -355 3 -6 2 -13 -3 -17 -6 -3 -4 -19 4 -39 8 -18 11 -37 7 -40 -3 -4 0 -11
8 -16 9 -6 10 -10 3 -10 -9 0 -8 -7 2 -26 7 -15 11 -33 8 -42 -4 -9 -2 -13 4
-9 6 4 8 -3 5 -20 -4 -19 -2 -24 8 -18 9 5 11 4 6 -3 -4 -7 -4 -18 1 -24 8
-13 12 -29 15 -60 1 -10 5 -18 8 -18 4 0 13 -22 20 -50 7 -27 17 -50 22 -50 4
0 8 -6 8 -13 0 -19 24 -67 33 -67 5 0 6 -4 2 -9 -3 -5 -1 -12 5 -16 6 -4 8
-11 5 -16 -4 -5 -1 -9 4 -9 6 0 11 -7 11 -15 0 -8 5 -15 11 -15 5 0 7 -4 4
-10 -3 -5 -1 -10 6 -10 7 0 10 -3 6 -6 -3 -3 -2 -11 4 -18 18 -22 60 -88 62
-99 1 -6 12 -22 25 -34 12 -13 22 -27 22 -32 0 -4 14 -23 30 -41 17 -18 30
-37 30 -42 0 -4 7 -8 16 -8 8 0 13 -4 10 -8 -3 -5 5 -18 17 -29 12 -11 34 -33
49 -49 15 -16 43 -44 62 -62 20 -19 36 -38 36 -43 0 -4 7 -6 15 -3 9 4 15 0
15 -10 0 -9 7 -16 15 -16 8 0 15 -4 15 -9 0 -6 18 -21 40 -34 22 -13 37 -26
34 -29 -3 -4 4 -9 16 -13 11 -4 32 -19 47 -33 14 -15 22 -20 17 -12 -7 13 -6
13 12 0 10 -8 24 -20 31 -26 9 -8 -92 -11 -385 -10 -252 1 -400 5 -404 11 -5
7 -8 7 -8 0 0 -13 -189 -13 -209 -1 -9 6 -12 5 -8 -1 8 -12 -212 -11 -232 2
-9 5 -12 4 -8 -2 5 -8 -18 -10 -71 -7 -42 2 -96 5 -119 6 -24 1 -43 5 -43 10
0 4 -11 8 -25 8 -15 0 -39 7 -54 15 -16 8 -31 11 -35 8 -3 -4 -6 -1 -6 6 0 7
-5 9 -10 6 -6 -3 -13 1 -16 9 -3 9 -10 13 -15 10 -8 -5 -18 1 -54 34 -7 6 -17
12 -22 12 -4 0 -24 19 -43 41 -19 22 -45 52 -58 65 -13 13 -19 24 -15 24 4 0
1 6 -8 13 -16 12 -35 55 -31 70 1 4 -2 7 -8 7 -6 0 -9 3 -9 8 4 24 -2 42 -13
36 -7 -5 -9 -2 -5 8 3 9 0 21 -6 28 -9 10 -9 11 2 5 10 -6 12 -4 5 6 -9 15
-11 26 -16 74 -1 17 -7 33 -13 37 -6 5 -6 8 2 8 9 0 10 7 3 24 -5 15 -5 27 3
35 8 8 8 11 -2 11 -11 0 -11 3 0 16 10 13 10 17 -2 25 -11 7 -11 9 0 9 11 0
11 3 1 15 -10 12 -10 15 0 15 10 0 10 3 0 15 -10 12 -10 15 0 15 10 0 10 3 0
15 -9 11 -9 15 -1 15 7 0 9 5 5 12 -10 16 -11 87 -2 114 3 12 2 26 -5 33 -8 8
-8 11 2 11 11 0 11 3 1 15 -10 12 -10 15 1 15 10 0 10 3 1 12 -8 8 -9 15 -1
25 8 9 8 13 0 13 -7 0 -8 8 -1 25 7 17 6 25 -1 25 -8 0 -7 5 1 15 9 11 9 15 1
15 -8 0 -9 5 -2 18 7 13 6 23 -1 30 -9 9 -9 12 2 12 11 0 11 3 2 12 -8 8 -9
15 -1 25 7 7 7 13 2 13 -10 0 -10 46 0 56 3 4 2 15 -4 25 -7 14 -6 19 2 19 8
0 8 4 -1 15 -10 12 -10 15 1 16 8 0 10 2 4 5 -11 4 -11 106 -1 123 4 6 1 11
-6 11 -10 0 -10 2 1 9 9 6 10 10 2 16 -9 5 -9 11 0 22 10 11 10 16 0 23 -10 5
-10 9 -2 15 9 5 9 10 0 21 -9 11 -8 14 2 14 9 0 10 3 4 8 -12 8 -13 32 -2 50
5 7 3 12 -4 12 -10 0 -10 3 -1 12 8 8 8 15 1 24 -7 8 -7 14 1 19 7 4 7 13 -1
27 -8 16 -8 19 1 13 9 -6 9 -2 1 14 -7 11 -8 21 -3 21 4 0 8 9 8 20 0 11 -4
20 -8 20 -4 0 -3 11 2 25 5 14 6 25 1 25 -9 0 -8 30 2 47 4 6 2 15 -4 19 -8 4
-7 9 2 15 12 7 12 9 0 9 -11 0 -11 3 -1 15 9 11 9 15 1 15 -9 0 -9 5 -1 20 8
15 8 20 -2 21 -11 0 -11 2 0 6 10 4 10 8 1 19 -9 11 -9 14 0 14 11 0 9 8 -11
41 -1 3 3 13 11 22 7 10 9 17 4 17 -11 0 -11 29 1 48 4 7 2 12 -4 12 -7 0 -8
5 -3 13 11 17 10 31 -2 39 -6 5 -5 8 4 8 11 0 11 3 1 15 -7 9 -8 15 -2 15 11
0 11 18 -1 38 -5 7 -3 12 4 12 10 0 10 3 2 11 -7 7 -8 21 -3 38 4 15 3 35 -2
44 -6 12 -5 17 4 17 9 0 9 3 0 12 -8 8 -9 15 -1 25 9 9 8 13 0 13 -9 0 -9 5 0
21 8 16 8 20 -1 14 -9 -6 -9 -2 -1 14 9 16 9 21 0 21 -8 0 -8 4 1 15 9 11 9
15 1 15 -7 0 -9 4 -6 10 4 6 273 10 730 10 574 0 723 -3 721 -12z m4334 2
c-12 -8 -12 -10 5 -10 17 0 17 -2 5 -10 -11 -7 -11 -10 -2 -10 8 0 10 -5 6
-12 -11 -18 -10 -68 1 -68 7 0 7 -3 0 -8 -14 -10 -17 -32 -4 -32 5 0 7 -5 3
-11 -3 -6 -6 -56 -6 -112 1 -60 -3 -106 -10 -114 -8 -11 -7 -12 7 -7 13 6 16
4 10 -5 -4 -7 -7 -41 -7 -75 0 -33 1 -124 1 -201 1 -277 2 -319 7 -327 3 -4
-1 -8 -8 -8 -9 0 -9 -3 2 -10 8 -5 10 -10 5 -10 -6 0 -8 -26 -5 -70 3 -38 3
-70 0 -70 -7 0 -3 -117 5 -129 3 -6 2 -11 -3 -11 -5 0 -6 -20 -2 -45 4 -25 5
-47 2 -50 -4 -4 -6 -90 -2 -112 4 -27 -1 -376 -5 -384 -4 -5 -1 -9 5 -9 6 0 8
-5 4 -12 -4 -6 -7 -35 -6 -65 0 -29 -4 -56 -9 -59 -6 -3 -6 -11 -1 -17 7 -11
9 -32 2 -39 -1 -2 -2 -22 -3 -45 0 -24 -4 -43 -8 -43 -4 0 -6 -8 -5 -17 2 -10
-3 -27 -11 -39 -7 -11 -10 -24 -6 -27 3 -4 1 -7 -5 -7 -6 0 -9 -9 -7 -20 2
-11 0 -18 -4 -15 -8 4 -23 -18 -25 -38 -1 -4 -12 -20 -26 -34 -14 -15 -18 -23
-10 -19 8 4 -3 -9 -25 -30 -22 -20 -33 -33 -25 -28 9 5 7 1 -5 -9 -56 -50 -78
-67 -85 -67 -4 0 -13 -7 -20 -15 -7 -8 -16 -12 -21 -9 -5 3 -9 0 -9 -5 0 -6
-3 -10 -7 -9 -5 1 -18 -3 -30 -10 -13 -7 -23 -10 -23 -6 0 3 -7 1 -15 -6 -8
-7 -21 -10 -30 -7 -8 4 -19 -1 -24 -11 -7 -11 -11 -12 -11 -4 0 7 -5 10 -12 6
-6 -4 -34 -9 -62 -11 -28 -2 -56 -5 -63 -8 -7 -2 -15 0 -18 6 -4 5 -12 6 -18
2 -18 -11 -51 -10 -59 2 -5 6 -8 6 -8 0 0 -12 -359 -13 -379 -1 -10 6 -12 5
-7 -2 4 -7 1 -12 -9 -12 -10 0 -13 5 -9 12 5 7 3 8 -7 2 -19 -12 -31 -12 -46
-2 -6 5 -13 5 -16 1 -7 -11 -259 -9 -276 2 -9 5 -12 4 -8 -1 3 -6 -30 -9 -86
-8 -51 0 -103 -3 -116 -8 -13 -5 -27 -5 -30 -1 -3 5 -57 8 -118 8 -62 0 -113
2 -113 4 0 11 34 41 47 41 7 0 13 5 13 10 0 6 5 10 11 10 7 0 21 10 33 23 12
12 28 23 36 25 8 2 20 12 28 23 7 10 20 19 28 19 8 0 14 4 14 9 0 6 14 18 30
28 17 9 33 25 36 35 3 10 11 18 17 18 14 0 83 71 79 83 -1 4 5 7 13 7 8 0 15
7 15 15 0 8 8 15 17 15 9 0 14 3 10 6 -3 4 -1 12 6 18 7 7 23 27 37 45 14 19
33 40 42 49 9 9 15 19 12 24 -3 4 0 8 5 8 6 0 11 7 11 15 0 8 5 15 10 15 6 0
10 5 10 11 0 6 7 17 15 26 8 8 13 18 10 23 -3 4 2 10 10 14 8 3 15 10 15 17 0
6 9 23 20 39 11 15 17 30 13 33 -3 4 2 9 11 13 9 3 14 10 11 14 -3 5 -1 11 5
15 6 4 8 10 5 15 -3 4 2 13 10 20 7 6 11 18 8 26 -3 8 -1 14 5 14 10 0 35 53
35 76 0 8 4 14 9 14 5 0 7 4 3 9 -3 5 1 15 8 23 8 7 13 21 11 31 -1 9 2 17 6
17 5 0 7 9 5 20 -2 11 0 20 5 20 5 0 7 7 4 15 -4 8 -2 15 4 15 5 0 9 10 9 23
0 12 3 29 6 37 15 38 25 93 20 107 -4 11 -2 14 5 9 8 -5 11 2 8 24 -2 17 1 33
6 36 5 3 4 11 -2 19 -6 7 -7 16 -2 19 5 3 10 24 11 48 5 80 2 293 -4 328 -3
19 -7 47 -7 62 0 15 -3 26 -7 24 -3 -2 -6 8 -7 22 0 23 -7 64 -17 107 -1 6 -7
16 -11 24 -7 11 -6 12 5 6 12 -8 12 -6 0 8 -7 9 -10 17 -5 17 5 0 1 5 -9 11
-13 8 -15 14 -7 29 7 13 6 19 -6 24 -8 3 -12 11 -9 16 4 6 1 18 -7 27 -9 11
-9 14 -1 10 11 -7 -1 22 -39 97 -7 14 -6 16 3 10 7 -4 3 6 -9 23 -12 17 -22
38 -22 46 0 8 -6 20 -14 27 -8 6 -12 19 -9 27 5 12 3 14 -7 8 -10 -6 -12 -4
-7 8 3 10 3 17 -2 17 -4 0 -16 18 -26 40 -10 22 -22 40 -27 40 -5 0 -6 5 -3
10 3 6 1 10 -5 10 -6 0 -8 5 -5 10 3 6 1 10 -4 10 -6 0 -11 7 -11 15 0 8 -4
15 -10 15 -5 0 -10 7 -10 15 0 8 -4 15 -10 15 -5 0 -10 7 -10 15 0 8 -4 15 -9
15 -5 0 -12 11 -15 25 -4 14 -11 25 -16 25 -6 0 -10 4 -10 10 0 6 259 10 718
10 470 0 712 -4 702 -10z"/>
<path d="M5035 6251 c3 -5 1 -12 -5 -16 -5 -3 -10 -2 -10 2 0 10 -87 10 -97 0
-3 -4 -13 -1 -21 6 -13 9 -14 9 -8 0 5 -9 1 -13 -11 -14 -22 -1 -73 -7 -93
-12 -8 -2 -25 -9 -37 -15 -18 -10 -23 -10 -23 -1 0 8 -6 7 -17 -3 -10 -9 -26
-14 -35 -13 -10 2 -18 -1 -18 -6 0 -5 -6 -9 -13 -9 -20 0 -79 -30 -99 -51 -15
-15 -30 -54 -33 -84 -1 -5 3 -16 8 -22 5 -7 6 -13 2 -13 -4 0 -2 -7 5 -15 7
-8 9 -15 5 -15 -5 0 2 -9 15 -20 13 -11 29 -20 37 -20 7 0 16 -7 20 -16 3 -8
11 -13 18 -10 7 2 23 -3 36 -11 12 -9 19 -11 15 -5 -5 8 4 12 28 12 19 0 38 5
41 11 4 6 13 8 21 5 8 -3 14 -1 14 5 0 6 4 8 9 4 5 -3 12 -1 16 5 4 6 11 8 16
4 5 -3 15 -1 22 4 7 5 20 8 30 7 9 -2 17 1 17 6 0 4 7 6 15 3 8 -4 22 -1 30 6
11 9 15 9 15 1 0 -9 5 -9 21 0 16 8 20 8 14 -1 -6 -9 -3 -9 11 -2 25 13 36 13
53 -1 10 -8 12 -8 8 -1 -9 15 76 15 85 0 5 -8 8 -7 8 2 0 7 5 10 11 6 11 -6
83 -16 136 -18 11 -1 19 -5 15 -10 -3 -5 2 -7 10 -3 9 3 28 -1 43 -9 15 -8 31
-11 36 -8 5 3 9 0 9 -5 0 -6 9 -11 20 -11 11 0 20 -5 20 -11 0 -5 5 -7 10 -4
6 3 10 1 10 -4 0 -6 3 -10 8 -9 14 4 52 -13 52 -23 0 -6 5 -7 10 -4 6 3 10 3
10 -2 0 -4 20 -19 45 -32 24 -13 42 -28 38 -34 -3 -5 -1 -7 4 -4 6 4 16 0 23
-8 7 -8 17 -12 24 -8 6 3 8 3 5 -1 -8 -9 34 -56 50 -56 6 0 10 -4 8 -8 -1 -5
13 -23 32 -40 18 -18 29 -32 25 -32 -5 0 -4 -4 1 -8 21 -15 50 -56 35 -48 -8
4 -5 -1 6 -11 12 -10 27 -33 35 -50 8 -18 18 -33 22 -33 5 0 6 -4 3 -9 -3 -4
1 -17 9 -27 8 -10 15 -29 15 -41 0 -13 4 -23 8 -23 7 0 11 -16 14 -57 1 -7 4
-13 8 -13 6 0 8 -10 13 -86 2 -28 7 -56 11 -63 4 -6 2 -11 -5 -11 -9 0 -9 -3
0 -14 9 -10 9 -16 1 -21 -7 -5 -8 -11 -1 -19 5 -6 6 -18 2 -25 -5 -7 -6 -28
-4 -47 3 -24 1 -34 -9 -34 -11 0 -11 -2 1 -9 9 -6 10 -11 2 -15 -6 -4 -11 -12
-11 -17 0 -6 5 -7 12 -3 7 5 8 3 2 -7 -4 -8 -9 -20 -11 -28 -1 -8 -5 -17 -10
-20 -4 -3 -8 -17 -8 -31 1 -14 -6 -31 -15 -38 -13 -11 -13 -12 0 -6 12 7 13 5
3 -8 -7 -8 -10 -18 -6 -21 3 -4 -2 -9 -11 -13 -9 -3 -13 -10 -10 -15 3 -6 0
-16 -6 -24 -6 -8 -8 -20 -4 -26 4 -8 3 -9 -4 -5 -7 4 -12 1 -12 -8 0 -9 -5
-16 -12 -16 -6 0 -9 -3 -5 -6 3 -3 -2 -14 -11 -25 -9 -11 -17 -23 -17 -27 0
-4 -10 -18 -22 -31 -12 -13 -20 -28 -17 -33 3 -4 -3 -8 -12 -8 -10 0 -15 -3
-11 -6 6 -6 -60 -74 -72 -74 -4 0 -14 -11 -21 -25 -7 -13 -16 -22 -20 -20 -3
2 -13 -5 -20 -16 -8 -10 -20 -19 -27 -19 -7 0 -23 -10 -35 -23 -13 -13 -30
-21 -37 -19 -8 3 -11 0 -8 -5 4 -6 -12 -16 -33 -23 -22 -7 -40 -16 -40 -19 0
-4 -10 -7 -22 -8 -11 -1 -25 -8 -29 -14 -4 -7 -24 -13 -44 -14 -20 0 -39 -5
-43 -11 -4 -5 -17 -9 -29 -8 -13 1 -23 -3 -23 -8 0 -4 -11 -6 -25 -4 -15 3
-25 0 -25 -7 0 -8 -3 -7 -9 2 -6 9 -10 10 -16 2 -5 -9 -11 -9 -23 1 -11 9 -13
9 -9 1 6 -9 -22 -11 -115 -9 -68 2 -131 7 -140 11 -9 4 -22 4 -28 0 -5 -3 -10
-1 -10 5 0 6 -4 9 -9 5 -5 -3 -12 -1 -16 4 -3 6 -12 8 -20 4 -8 -3 -15 -1 -15
5 0 6 -11 9 -25 7 -14 -1 -25 2 -25 6 0 5 -11 9 -25 9 -14 0 -25 5 -25 11 0 6
-7 8 -16 5 -8 -3 -13 -2 -10 3 5 8 -29 25 -46 22 -5 -1 -8 4 -8 10 0 5 -5 7
-10 4 -6 -3 -13 0 -16 9 -3 8 -12 12 -20 9 -8 -3 -14 1 -14 11 0 9 -8 16 -20
16 -11 0 -20 5 -20 10 0 6 -6 10 -13 10 -7 0 -19 9 -27 20 -8 11 -20 20 -27
20 -7 0 -13 8 -13 17 0 9 -3 14 -6 11 -6 -6 -64 50 -64 62 0 4 -11 13 -25 20
-18 10 -22 16 -13 22 11 6 11 8 0 8 -15 0 -94 119 -87 130 3 4 -2 10 -10 14
-8 3 -15 15 -15 26 0 13 -4 19 -11 14 -8 -4 -9 0 -4 15 3 11 2 21 -3 21 -6 0
-13 7 -16 16 -3 8 -2 12 4 9 5 -3 3 6 -5 21 -7 15 -11 33 -8 40 3 8 0 14 -7
14 -8 0 -11 9 -8 25 3 13 0 26 -6 29 -7 3 -6 5 2 5 10 1 10 6 2 22 -7 11 -9
27 -6 34 2 7 2 16 -2 19 -9 10 -10 46 0 46 5 0 4 8 -1 18 -6 11 -6 24 0 35 6
9 6 17 1 17 -10 0 -9 30 2 48 4 6 3 12 -1 12 -5 0 -9 8 -10 18 -2 37 -13 65
-32 82 -12 9 -17 21 -13 25 4 5 -1 5 -10 2 -10 -3 -23 -1 -30 6 -21 19 -100
15 -120 -6 -9 -10 -19 -18 -22 -18 -3 1 -5 -2 -3 -5 1 -3 -6 -10 -15 -15 -10
-6 -18 -18 -18 -28 0 -10 -3 -21 -7 -24 -19 -20 -17 -315 2 -347 5 -8 8 -29 7
-47 -2 -18 1 -33 6 -33 4 0 9 -12 10 -27 1 -16 6 -29 12 -31 5 -2 6 -10 3 -18
-3 -8 0 -20 6 -27 9 -12 18 -40 20 -70 1 -5 6 -5 11 -2 6 4 9 3 8 -2 -4 -14
25 -83 34 -83 5 0 6 -4 3 -10 -3 -5 -1 -10 6 -10 7 0 10 -3 6 -6 -3 -4 -1 -12
6 -20 30 -33 35 -42 30 -48 -4 -3 -1 -6 5 -6 7 0 12 -5 12 -11 0 -7 10 -21 23
-33 12 -11 25 -25 27 -31 3 -5 9 -9 13 -7 5 1 6 -2 2 -8 -3 -6 7 -22 24 -36
17 -14 31 -32 31 -40 0 -8 4 -14 9 -14 5 0 27 -17 49 -37 60 -55 96 -83 107
-83 6 0 17 -9 25 -19 7 -11 17 -18 22 -15 4 3 8 0 8 -6 0 -6 4 -9 9 -6 5 4 11
3 13 -2 4 -11 127 -72 144 -72 8 0 14 -4 14 -10 0 -5 9 -10 20 -10 11 0 20 -4
20 -8 0 -5 6 -9 13 -10 21 -2 42 -7 53 -15 6 -3 25 -8 43 -9 17 -1 31 -5 31
-8 0 -3 10 -7 23 -8 58 -5 94 -10 120 -17 36 -10 308 -12 313 -3 3 4 11 5 19
1 8 -3 15 -1 15 5 0 6 13 8 30 6 19 -3 30 -1 30 7 0 8 4 9 13 1 10 -9 19 -7
37 5 17 12 21 13 15 2 -8 -12 -6 -12 8 0 10 8 27 15 40 16 37 4 38 5 31 18 -5
9 -4 9 6 0 10 -9 16 -8 28 3 11 11 17 12 22 4 5 -8 9 -7 14 5 3 9 10 14 15 11
5 -4 16 1 25 9 8 9 18 15 21 14 12 -2 115 53 115 62 0 6 4 8 9 4 5 -3 17 3 27
12 10 10 21 18 25 18 9 0 69 48 120 96 17 16 35 29 40 29 5 0 8 3 7 8 -2 4 14
24 35 45 20 21 37 43 37 48 0 6 5 7 10 4 6 -3 10 1 10 10 0 8 9 23 20 32 11
10 20 23 20 30 0 7 5 13 10 13 6 0 10 6 10 14 0 8 5 16 11 18 5 2 11 12 13 21
1 10 9 23 17 28 8 5 10 9 4 9 -5 0 -3 6 5 13 8 7 15 17 15 22 1 6 12 35 26 65
33 69 41 90 46 115 8 38 11 50 13 50 2 0 9 34 14 65 2 14 5 25 5 25 12 0 21
294 9 301 -4 3 -2 14 5 25 8 13 9 22 1 27 -5 4 -10 17 -11 30 0 12 -2 23 -3
25 -4 5 -10 43 -12 69 0 16 -5 25 -11 21 -6 -4 -8 0 -4 10 3 9 2 19 -4 22 -5
4 -7 11 -4 16 4 5 1 9 -5 9 -6 0 -9 4 -6 9 3 5 -5 34 -18 64 -14 30 -22 58
-19 61 4 3 1 6 -6 6 -7 0 -9 5 -6 10 3 6 0 10 -8 10 -7 0 -14 6 -14 14 0 17
-90 155 -117 179 -10 9 -15 17 -11 17 5 0 -9 18 -32 39 -22 22 -38 42 -35 45
3 3 1 6 -5 6 -5 0 -36 24 -69 54 -32 30 -60 53 -63 51 -2 -3 -12 5 -22 16 -9
11 -19 20 -21 19 -7 -4 -58 24 -58 32 0 4 -7 8 -15 8 -8 0 -15 5 -15 10 0 6
-3 9 -7 8 -5 -1 -31 10 -59 25 -28 14 -54 23 -58 20 -3 -4 -6 -1 -6 5 0 7 -8
12 -18 12 -10 0 -22 3 -26 7 -3 4 -16 8 -28 10 -12 2 -28 9 -37 16 -12 10 -13
9 -6 -3 7 -12 6 -13 -6 -4 -8 6 -25 14 -39 16 -14 3 -34 9 -44 13 -15 7 -17 5
-11 -6 7 -11 6 -12 -6 -3 -21 17 -63 24 -174 29 -55 3 -106 8 -113 10 -7 3
-10 1 -7 -4z"/>
<path d="M1139 6541 c-3 -7 -13 -13 -23 -15 -28 -4 -65 -44 -61 -66 2 -11 0
-20 -4 -20 -4 0 -7 -13 -6 -30 1 -16 -2 -30 -7 -30 -5 0 -5 -8 0 -17 5 -10 8
-25 6 -33 -11 -53 -15 -74 -20 -102 -2 -18 -5 -39 -6 -45 -1 -7 -5 -13 -10
-13 -4 0 -7 -3 -6 -7 1 -5 -3 -18 -10 -30 -7 -13 -9 -23 -5 -23 4 0 -3 -10
-17 -21 -14 -11 -19 -18 -13 -14 9 4 11 1 7 -9 -3 -9 -10 -13 -15 -10 -5 3 -9
0 -9 -6 0 -15 -46 -60 -54 -53 -3 4 -6 1 -6 -5 0 -13 -80 -57 -80 -45 0 5 -4
3 -8 -4 -4 -6 -19 -13 -32 -15 -14 -2 -29 -6 -35 -10 -5 -3 -36 -5 -67 -4 -32
1 -58 -2 -58 -7 0 -5 -6 -7 -12 -5 -14 5 -50 -27 -40 -36 3 -3 -2 -6 -11 -6
-10 0 -14 -5 -11 -15 4 -8 1 -15 -5 -15 -7 0 -8 -8 -1 -24 4 -13 5 -27 2 -32
-4 -5 -6 -8 -3 -7 2 1 15 -12 30 -30 14 -18 35 -32 46 -33 11 -1 45 -5 75 -9
30 -4 65 -8 78 -8 12 -1 22 -5 22 -9 0 -4 6 -8 13 -8 25 0 73 -29 114 -69 22
-22 44 -37 48 -33 5 4 5 2 2 -5 -4 -6 -2 -17 5 -25 18 -19 58 -97 58 -114 0
-8 4 -14 8 -14 4 0 8 -10 9 -22 4 -75 7 -98 14 -98 11 0 6 -53 -6 -62 -7 -5
-6 -8 0 -8 6 0 10 -12 10 -27 -1 -16 3 -36 7 -45 6 -12 5 -18 -4 -18 -10 0
-10 -3 1 -9 8 -5 11 -16 8 -26 -4 -9 -3 -13 2 -10 5 3 12 -4 16 -15 4 -11 10
-18 15 -15 5 3 12 -1 17 -9 7 -12 54 -22 76 -16 4 1 12 3 17 4 14 1 82 68 75
74 -2 2 0 13 6 23 7 14 6 19 -3 19 -8 0 -9 3 -3 8 6 4 10 42 10 84 0 43 4 78
9 78 5 0 2 8 -5 17 -11 13 -11 15 -1 9 9 -5 12 -3 11 5 -2 8 1 32 6 54 4 22 8
43 7 48 -1 4 3 7 9 7 5 0 8 4 5 9 -3 5 1 14 9 21 8 7 12 16 9 21 -3 5 -1 9 5
9 6 0 13 11 17 25 4 14 9 24 12 21 3 -3 15 8 27 24 12 16 25 27 28 23 4 -3 7
1 7 11 0 9 4 15 9 11 5 -3 16 1 24 10 8 8 21 16 28 17 8 2 20 9 27 16 8 7 18
10 23 7 5 -4 9 -2 9 3 0 5 18 9 40 8 22 -1 40 1 40 5 0 4 8 5 18 2 24 -6 95
23 88 36 -4 5 2 12 11 15 24 8 22 80 -3 107 -9 10 -13 19 -8 19 5 0 1 5 -9 11
-9 5 -22 7 -27 4 -6 -3 -13 0 -15 7 -4 10 -21 13 -60 11 -30 -1 -55 1 -55 6 0
4 -7 8 -15 9 -8 1 -22 3 -30 4 -8 1 -15 5 -15 10 0 4 -3 7 -7 6 -12 -3 -77 33
-86 48 -4 8 -15 14 -24 14 -9 0 -14 3 -10 6 3 4 1 12 -6 19 -7 7 -19 23 -27
35 -8 12 -21 28 -28 36 -7 7 -12 15 -12 16 2 5 -12 62 -18 72 -6 11 -12 62
-15 126 -1 25 -6 48 -12 52 -7 5 -7 8 0 8 12 0 13 55 2 66 -4 4 -7 14 -7 21 0
15 -35 51 -67 70 -16 9 -23 9 -32 0 -9 -9 -14 -9 -20 2 -6 9 -10 10 -12 2z
m31 -581 c0 -10 6 -23 13 -27 8 -4 17 -16 20 -26 4 -10 11 -15 17 -12 5 3 10
1 10 -5 0 -6 10 -21 21 -33 12 -12 19 -15 15 -7 -5 9 -2 8 7 -2 8 -10 20 -18
26 -18 7 0 9 -4 6 -10 -3 -5 -1 -10 6 -10 7 0 -1 -13 -17 -28 -16 -16 -32 -27
-36 -25 -4 2 -9 -6 -13 -17 -3 -11 -9 -19 -13 -17 -4 1 -8 -2 -9 -6 0 -5 -13
-21 -27 -36 -15 -15 -24 -30 -21 -33 3 -3 -1 -11 -10 -18 -12 -10 -17 -7 -27
16 -7 16 -24 39 -37 52 -13 12 -21 22 -17 22 4 0 1 6 -6 14 -7 8 -16 12 -19
10 -3 -2 -12 8 -19 21 -7 13 -16 23 -19 20 -14 -8 -34 14 -28 30 4 9 11 13 17
10 5 -3 10 -1 10 5 0 6 16 20 35 31 19 12 32 25 29 30 -3 5 -2 8 3 7 4 -2 9 1
10 5 1 5 12 17 24 28 12 10 19 19 15 19 -4 0 -2 9 4 20 13 24 30 18 30 -10z"/>
<path d="M8923 6537 c-2 -4 -7 -5 -11 -3 -4 2 -14 -1 -22 -7 -19 -15 -64 -77
-55 -77 3 0 1 -8 -4 -18 -7 -13 -6 -23 1 -30 7 -7 8 -12 2 -12 -5 0 -10 -28
-11 -62 -4 -114 -8 -143 -22 -154 -8 -6 -11 -16 -7 -22 4 -7 2 -12 -5 -12 -7
0 -9 -3 -6 -6 4 -4 -3 -20 -14 -35 -11 -16 -17 -29 -13 -29 4 0 -3 -9 -16 -20
-13 -11 -20 -20 -16 -20 4 0 1 -6 -6 -14 -7 -8 -16 -12 -20 -10 -4 2 -13 -4
-20 -13 -18 -25 -98 -65 -98 -50 0 7 -4 6 -10 -3 -5 -8 -17 -15 -27 -15 -10 0
-23 -3 -28 -7 -6 -3 -25 -5 -43 -4 -17 1 -32 0 -32 -3 0 -3 -12 -7 -26 -8 -35
-2 -74 -23 -74 -40 0 -7 -5 -13 -11 -13 -6 0 -9 -7 -5 -15 3 -8 1 -15 -4 -15
-6 0 -10 -9 -10 -20 0 -11 5 -20 10 -20 6 0 10 -9 10 -20 0 -11 5 -20 10 -20
6 0 10 -6 10 -13 0 -8 6 -14 13 -15 21 -1 59 -11 65 -17 3 -2 11 0 18 6 8 7
14 7 19 -1 5 -8 11 -7 23 2 12 10 14 10 8 1 -7 -12 5 -18 28 -14 5 1 16 -1 25
-5 9 -4 24 -9 34 -11 10 -2 25 -10 33 -18 9 -8 19 -15 24 -15 15 0 90 -73 90
-87 0 -7 5 -12 12 -10 7 1 12 -2 13 -8 0 -5 8 -24 18 -41 9 -17 13 -34 10 -38
-4 -3 -1 -6 6 -6 8 0 11 -7 7 -15 -3 -8 -1 -15 4 -15 6 0 10 -8 10 -18 0 -10
6 -24 13 -31 8 -10 8 -12 0 -7 -8 4 -11 -1 -10 -14 1 -11 4 -20 8 -20 4 0 6
-34 5 -75 0 -44 3 -75 9 -75 6 0 4 -4 -4 -9 -11 -7 -11 -13 0 -32 7 -13 12
-26 12 -29 -1 -13 13 -37 32 -56 27 -27 98 -27 135 -1 13 9 20 17 15 17 -6 1
-1 8 10 18 11 9 20 24 20 32 0 8 4 18 10 22 6 5 5 8 -3 8 -10 0 -10 5 -2 20 8
15 8 20 -1 20 -9 0 -9 3 0 14 8 10 9 16 1 21 -6 3 -7 12 -3 18 4 7 8 32 9 57
1 24 6 46 12 48 5 1 8 16 6 32 -2 17 1 30 6 30 6 0 9 3 9 8 -1 4 0 10 1 15 1
4 3 11 4 15 3 22 59 113 76 125 11 8 17 17 13 20 -3 4 1 7 11 7 10 0 14 5 10
12 -4 6 -3 8 3 5 5 -4 20 3 32 14 12 12 28 22 36 23 7 1 20 8 29 15 9 7 16 10
16 6 0 -4 6 -3 13 2 6 5 26 10 42 11 17 1 41 5 55 8 14 3 32 6 40 6 33 0 80
20 80 34 0 9 5 12 10 9 6 -3 11 -1 11 4 2 15 6 30 9 34 8 9 5 55 -3 50 -6 -4
-8 0 -4 9 11 30 -63 68 -135 70 -35 1 -70 5 -78 9 -8 4 -34 13 -57 20 -24 7
-43 16 -43 21 0 4 -6 8 -12 8 -15 1 -68 45 -68 57 0 5 -11 17 -25 27 -14 10
-25 25 -25 32 0 7 -6 19 -12 26 -7 7 -15 22 -16 33 -2 11 -8 22 -13 26 -8 5
-11 23 -23 129 -3 19 -5 35 -6 35 -1 0 -3 26 -4 57 0 31 -4 60 -8 64 -5 4 -8
15 -8 25 0 15 -25 34 -42 31 -4 -1 -5 5 -2 13 5 11 2 13 -10 9 -9 -3 -16 -2
-16 2 0 11 -50 12 -57 1z m47 -578 c0 -9 7 -20 16 -23 9 -4 14 -13 10 -21 -3
-9 0 -15 9 -15 8 0 15 -8 15 -17 0 -14 2 -15 9 -4 7 11 10 9 16 -8 3 -11 12
-21 20 -21 7 0 16 -7 19 -16 4 -9 9 -14 13 -11 3 4 12 2 19 -4 11 -9 11 -13
-1 -25 -7 -8 -18 -14 -24 -14 -5 0 -26 -16 -47 -35 -20 -19 -34 -35 -30 -35 4
0 -6 -12 -21 -27 -16 -16 -30 -32 -32 -38 -11 -35 -20 -39 -27 -11 -4 16 -13
36 -21 45 -61 69 -101 108 -116 114 -15 5 -15 10 -5 26 7 11 16 17 21 14 4 -2
17 6 28 19 12 12 26 23 32 23 7 1 11 6 10 13 -2 7 1 12 6 12 10 0 44 50 44 65
0 6 9 11 19 11 10 0 18 -7 18 -17z"/>
<path d="M760 4390 c-14 -4 -40 -6 -58 -6 -17 1 -32 -2 -32 -6 0 -5 -11 -8
-24 -8 -13 0 -40 -7 -60 -15 -20 -8 -36 -12 -36 -8 0 4 -7 -2 -16 -13 -8 -10
-13 -13 -9 -7 4 9 1 11 -9 7 -9 -3 -16 -10 -16 -15 0 -5 -3 -8 -7 -7 -5 1 -17
-1 -28 -5 -16 -5 -20 -16 -20 -49 0 -24 -7 -52 -15 -62 -13 -17 -13 -18 0 -11
13 8 13 7 1 -8 -7 -9 -20 -17 -27 -17 -8 0 -14 -5 -14 -11 0 -8 -6 -7 -17 2
-10 8 -14 9 -10 2 13 -20 -7 -22 -46 -3 l-37 18 -45 -44 c-25 -24 -45 -46 -45
-50 0 -3 -9 -18 -20 -34 -11 -15 -17 -30 -13 -34 3 -3 1 -6 -6 -6 -8 0 -11 -7
-7 -15 3 -9 0 -15 -9 -15 -8 0 -14 -3 -14 -7 1 -5 0 -11 -1 -15 -1 -5 -3 -11
-4 -15 -1 -5 -7 -18 -14 -29 -6 -12 -8 -24 -5 -28 3 -3 1 -6 -5 -6 -6 0 -9 -9
-7 -20 2 -11 -1 -22 -6 -25 -5 -4 -7 -11 -4 -16 4 -5 2 -9 -3 -9 -4 0 -7 -16
-6 -35 2 -20 0 -34 -4 -31 -4 2 -7 -50 -6 -117 1 -67 3 -122 4 -122 2 0 9 -46
11 -75 1 -8 6 -20 10 -26 5 -6 10 -23 11 -37 1 -14 6 -23 10 -21 4 3 8 -2 8
-10 0 -9 9 -31 19 -50 11 -19 18 -37 15 -40 -2 -3 -1 -4 3 -1 9 7 53 -68 46
-79 -4 -5 -1 -6 5 -2 7 4 12 1 12 -9 0 -9 4 -14 9 -11 5 3 12 -5 15 -19 4 -14
10 -24 14 -22 12 3 71 -61 64 -69 -4 -4 -2 -4 4 -1 14 8 37 -17 26 -28 -4 -5
-2 -5 5 -2 6 4 18 0 26 -8 9 -8 20 -15 26 -15 6 0 11 -4 11 -9 0 -5 10 -12 23
-16 12 -4 25 -8 30 -10 4 -1 12 -3 18 -4 5 0 7 -6 3 -13 -4 -6 -3 -8 3 -5 5 3
21 0 36 -8 15 -8 27 -11 27 -8 0 3 7 0 15 -7 8 -7 15 -10 15 -7 0 3 12 0 27
-8 15 -8 30 -12 35 -9 4 3 14 2 21 -3 14 -8 20 -10 88 -16 29 -3 49 -1 49 5 0
5 7 2 16 -7 10 -9 20 -13 23 -8 10 13 31 14 31 0 0 -7 7 -4 15 7 8 11 15 14
15 7 0 -7 5 -9 12 -5 6 4 25 9 42 11 60 6 98 13 109 20 12 8 33 13 55 15 6 1
12 5 12 10 0 4 9 8 21 8 11 0 17 4 14 10 -3 6 1 7 9 4 9 -3 16 -1 16 5 0 6 7
11 16 11 9 0 23 8 31 18 8 9 11 11 8 4 -6 -11 -3 -11 13 -1 16 10 23 10 35 -2
34 -32 86 -71 90 -68 3 2 14 -7 25 -21 11 -14 37 -34 58 -45 22 -11 45 -26 52
-33 8 -7 17 -10 21 -8 4 3 14 -4 21 -15 8 -10 25 -19 37 -19 13 0 23 -4 23
-10 0 -5 9 -10 20 -10 11 0 20 -4 20 -10 0 -5 11 -10 25 -10 14 0 25 -4 25 -8
0 -4 12 -9 26 -10 15 -1 32 -6 38 -11 10 -7 62 -21 106 -27 8 -1 29 -5 45 -9
17 -3 46 -7 65 -8 19 -1 38 -6 42 -12 5 -6 8 -5 8 3 0 8 5 10 12 6 14 -9 138
-12 138 -3 0 3 13 4 30 3 17 -1 30 3 30 9 0 8 3 8 12 -1 7 -7 17 -8 30 -1 11
6 18 6 18 0 0 -5 12 -4 26 4 14 7 37 11 50 9 13 -2 24 0 24 4 0 5 10 9 23 9
30 0 79 13 96 27 12 9 13 8 7 -2 -7 -11 -4 -12 13 -3 12 7 26 9 31 6 5 -3 11
-1 15 5 3 5 16 10 29 10 12 0 28 6 35 13 11 10 12 9 6 -3 -7 -12 -6 -13 6 -4
8 6 26 11 41 10 14 -1 26 2 25 7 -1 5 6 11 16 12 9 2 17 -1 17 -7 0 -5 7 -2
16 6 8 9 20 14 25 10 6 -3 16 0 24 6 12 10 15 10 15 -1 0 -8 6 -6 16 7 8 10
12 13 8 5 -5 -11 -3 -13 10 -8 10 4 27 7 37 7 11 0 17 5 14 10 -3 6 -1 10 4
10 6 0 11 -5 11 -10 0 -7 6 -7 18 -2 9 5 35 8 57 7 22 -1 43 3 47 9 5 7 8 6 8
-3 0 -10 3 -11 13 -3 8 7 18 7 27 2 21 -14 32 -12 24 3 -6 9 -4 9 8 -1 12 -9
18 -10 23 -2 4 6 12 7 18 2 7 -4 26 -7 42 -7 17 1 35 -1 40 -4 12 -7 29 -10
73 -13 17 -1 32 -6 32 -11 0 -5 7 -7 15 -3 8 3 15 1 15 -4 0 -5 7 -7 15 -4 8
4 15 1 15 -5 0 -6 6 -8 14 -5 8 3 17 0 21 -5 3 -6 11 -9 16 -6 5 4 9 1 9 -4 0
-6 9 -11 20 -11 11 0 20 -5 20 -10 0 -6 3 -9 8 -9 21 4 32 -2 26 -13 -4 -7 -4
-10 1 -6 10 9 65 -19 65 -33 0 -6 5 -7 10 -4 6 3 13 -1 16 -9 3 -9 11 -16 18
-16 6 0 30 -18 54 -40 23 -22 47 -40 53 -40 5 0 7 -4 4 -10 -3 -5 0 -10 7 -10
8 0 25 -13 38 -28 14 -16 29 -30 35 -33 5 -2 9 -7 8 -11 -2 -5 4 -8 12 -8 8 0
15 -4 15 -10 0 -5 7 -10 16 -10 8 0 13 -4 9 -9 -3 -5 4 -12 15 -16 11 -3 20
-14 20 -22 0 -9 3 -14 6 -10 4 3 19 -6 34 -21 43 -42 69 -62 81 -62 5 0 7 -4
4 -10 -3 -5 0 -10 7 -10 11 0 33 -16 88 -62 8 -7 18 -12 22 -11 5 2 8 -1 8 -6
0 -5 12 -16 28 -24 88 -46 117 -63 120 -69 2 -5 12 -8 23 -8 10 0 19 -5 19
-11 0 -5 4 -7 10 -4 6 3 10 2 10 -3 0 -7 64 -32 80 -31 3 0 18 -6 34 -15 16
-8 33 -13 38 -10 4 3 8 1 8 -5 0 -5 9 -8 20 -6 11 2 20 0 20 -6 0 -5 16 -9 36
-9 19 0 33 -4 30 -8 -4 -7 26 -12 82 -15 6 0 12 -4 12 -8 0 -4 14 -5 31 -2 20
3 29 1 25 -6 -4 -6 4 -7 24 -1 17 5 28 5 26 1 -3 -4 22 -7 54 -7 33 1 60 -2
60 -7 0 -6 5 -6 13 -1 6 5 53 9 104 9 53 0 89 4 85 9 -3 5 2 7 11 3 10 -4 17
-1 17 6 0 8 3 8 9 -2 5 -7 14 -10 20 -7 13 8 58 18 81 19 8 0 21 5 29 11 12 9
13 8 6 -4 -8 -13 -6 -13 8 -2 14 12 39 19 85 24 6 1 12 5 12 10 0 4 3 7 8 7
17 -4 71 14 67 22 -3 4 3 6 15 4 11 -2 22 1 25 6 4 5 11 7 16 4 5 -4 9 -1 9 6
0 7 3 9 7 6 3 -4 12 1 20 11 8 9 12 12 9 5 -5 -8 0 -8 19 0 14 7 25 15 25 20
0 4 6 7 14 7 8 0 22 7 30 16 9 8 16 12 16 8 0 -3 7 -1 15 6 8 7 15 9 15 6 0
-4 11 5 25 20 14 15 25 23 25 19 0 -4 9 0 20 10 11 10 20 16 20 12 0 -3 19 12
42 34 23 21 50 42 60 45 10 3 18 12 18 20 0 8 4 13 10 11 10 -2 59 38 130 105
21 20 41 34 44 31 3 -4 6 2 6 12 0 10 3 15 7 12 3 -4 25 13 49 37 23 25 44 42
47 40 3 -3 14 6 25 20 10 14 22 22 26 19 3 -3 6 1 6 11 0 9 5 14 11 11 5 -4
19 3 30 16 10 12 19 18 19 13 0 -5 5 -1 11 9 5 9 17 17 24 17 8 0 15 5 15 10
0 6 7 10 15 10 8 0 15 5 15 11 0 5 5 7 10 4 6 -3 10 -1 10 4 0 6 3 10 8 10 21
-4 32 3 32 19 0 14 2 14 9 3 7 -11 13 -12 23 -4 7 6 22 13 33 15 11 1 22 6 25
10 3 4 19 9 35 12 17 2 32 5 35 7 3 1 10 3 15 4 6 2 12 4 15 5 9 3 64 10 102
13 21 2 41 6 44 10 4 4 13 2 21 -4 7 -6 13 -8 13 -3 0 5 22 9 49 9 27 0 47 -3
45 -6 -2 -3 16 -6 39 -6 23 0 61 -5 85 -11 28 -7 42 -7 42 0 0 7 5 6 13 -1 8
-6 17 -8 20 -4 4 3 7 2 7 -3 0 -6 16 -11 36 -12 20 -2 45 -7 55 -13 14 -7 19
-6 19 3 0 9 3 9 10 -2 5 -8 10 -11 10 -6 0 5 6 3 13 -3 8 -6 17 -8 20 -4 4 3
7 0 7 -8 0 -11 2 -11 10 1 5 8 10 10 10 4 0 -7 15 -14 33 -17 17 -3 46 -8 62
-12 17 -4 37 -8 45 -9 9 -1 22 -6 29 -11 8 -4 28 -9 45 -10 80 -6 141 -17 148
-28 6 -9 8 -8 8 3 0 10 3 11 12 2 7 -7 17 -8 30 -1 11 6 18 6 18 0 0 -5 8 -8
18 -6 9 1 23 -2 30 -8 6 -5 12 -6 12 -1 0 10 92 10 108 0 6 -3 13 -2 17 4 4 6
10 8 15 5 5 -3 11 -1 15 5 4 7 12 7 25 0 13 -7 21 -7 25 0 4 7 13 6 27 -1 15
-8 19 -8 14 0 -5 7 4 11 24 11 22 0 29 4 24 13 -5 9 -4 9 6 0 9 -8 19 -9 32
-2 10 5 22 8 27 5 5 -3 14 0 20 8 7 8 21 12 33 8 16 -4 19 -2 13 8 -6 10 -4
12 7 7 9 -3 21 0 27 6 8 8 11 7 11 -3 0 -10 4 -8 13 5 8 10 19 15 25 11 7 -4
12 -2 12 4 0 7 7 9 16 6 8 -3 12 -2 9 4 -3 6 1 10 10 10 9 0 23 7 32 15 8 8
19 13 24 10 5 -4 9 -1 9 5 0 7 7 9 16 6 8 -3 12 -2 9 4 -3 6 0 10 8 10 7 0 23
9 35 20 12 11 25 20 30 20 5 0 21 11 36 25 14 13 30 25 34 26 4 0 6 5 4 10 -1
5 4 9 11 9 7 0 19 9 27 20 8 11 21 20 29 20 8 0 12 3 8 6 -9 9 19 34 37 34 8
0 20 -8 25 -17 6 -10 11 -14 11 -10 0 5 14 -2 32 -14 17 -13 28 -18 24 -11 -5
8 -2 10 8 6 9 -3 16 -9 16 -13 0 -4 11 -13 25 -19 19 -9 25 -9 25 1 0 9 3 9 9
-1 4 -7 14 -14 22 -15 8 -2 20 -6 27 -10 6 -5 17 -5 22 -2 6 3 10 1 10 -5 0
-7 7 -10 15 -6 8 3 15 2 15 -2 0 -4 18 -8 40 -9 23 0 47 -6 54 -12 7 -6 16 -8
20 -4 11 11 80 10 95 -1 11 -8 13 -8 7 2 -5 9 3 12 31 13 60 2 77 5 96 13 10
5 20 6 24 3 3 -4 23 3 44 14 22 11 39 16 39 12 0 -5 5 -1 10 7 7 11 10 12 10
2 0 -10 4 -9 16 2 8 9 20 14 25 11 5 -4 9 -3 9 2 0 9 61 39 73 35 5 -1 6 2 2
8 -3 5 0 10 8 10 8 0 25 11 38 25 13 13 28 25 32 25 15 0 138 138 137 153 -1
5 9 17 21 28 12 10 18 19 13 19 -5 0 -4 4 3 8 6 4 13 14 15 22 2 8 9 21 16 28
7 8 10 18 7 23 -4 5 -2 9 4 9 9 0 27 56 23 73 -1 4 3 7 9 7 6 0 9 7 5 15 -3 8
0 15 6 15 6 0 8 3 5 6 -3 4 -2 15 3 25 7 12 6 20 -1 25 -8 5 -7 9 2 14 9 6 12
39 12 117 -1 94 -6 168 -13 168 -2 0 -10 35 -12 58 -1 9 -5 17 -8 17 -3 0 -6
10 -7 22 -1 11 -6 24 -10 27 -4 3 -8 11 -9 16 -3 23 -17 55 -25 55 -5 0 -5 7
-2 17 5 12 3 14 -7 8 -10 -6 -12 -4 -7 9 4 9 3 14 -2 11 -5 -3 -13 5 -17 17
-3 12 -17 33 -30 47 -12 13 -20 29 -17 35 3 6 3 8 -2 4 -8 -8 -35 15 -35 31 0
5 -9 13 -20 16 -11 4 -18 11 -15 16 4 5 -1 9 -9 9 -9 0 -16 7 -16 15 0 8 -3
14 -7 14 -21 -3 -33 2 -33 16 0 13 -14 20 -23 13 -2 -2 -15 9 -31 25 -15 15
-32 25 -37 22 -5 -4 -9 -3 -9 2 0 12 -51 33 -63 26 -6 -3 -7 -1 -4 4 4 7 -8
14 -28 17 -24 5 -33 11 -28 19 4 7 -2 5 -12 -3 -11 -9 -16 -10 -11 -2 5 9 -4
12 -33 12 -23 0 -41 4 -41 8 0 5 -15 9 -32 10 -18 0 -72 2 -120 4 -53 2 -88 0
-88 -6 0 -5 -3 -6 -6 -3 -4 3 -15 2 -25 -3 -11 -6 -20 -6 -24 -1 -3 6 -16 4
-31 -4 -15 -7 -35 -12 -45 -10 -11 2 -19 0 -19 -6 0 -5 -3 -8 -7 -7 -16 3 -93
-23 -93 -32 0 -6 -3 -9 -7 -8 -16 4 -53 -14 -48 -22 3 -5 -4 -7 -15 -5 -11 2
-18 0 -15 -6 4 -5 -1 -9 -10 -9 -8 0 -18 -7 -21 -15 -4 -8 -10 -12 -15 -9 -5
3 -9 1 -9 -5 0 -5 -9 -13 -20 -16 -11 -4 -18 -11 -15 -16 4 -5 -1 -9 -10 -9
-8 0 -20 -11 -27 -25 -6 -13 -14 -23 -17 -20 -4 2 -17 -12 -30 -31 -13 -19
-27 -34 -32 -34 -5 0 -9 -7 -9 -16 0 -8 -5 -12 -10 -9 -6 4 -10 3 -9 -2 3 -19
-2 -43 -8 -41 -5 2 -9 -1 -11 -7 -2 -5 -11 -18 -19 -27 -9 -10 -13 -18 -9 -18
4 0 1 -10 -6 -22 -7 -13 -11 -26 -10 -30 1 -5 -3 -8 -10 -8 -6 0 -8 -3 -5 -6
3 -4 1 -16 -5 -28 -7 -11 -13 -25 -14 -31 0 -5 -2 -12 -3 -15 -3 -7 -8 -29
-12 -60 -2 -14 -8 -28 -14 -32 -6 -5 -4 -8 5 -8 13 0 13 -1 0 -10 -11 -7 -11
-10 -2 -10 8 0 10 -5 5 -12 -11 -19 -10 -188 2 -188 6 0 3 -5 -5 -10 -8 -5
-10 -10 -5 -10 9 0 15 -21 18 -67 0 -7 5 -13 10 -13 5 0 7 -9 4 -20 -3 -11 -1
-20 4 -20 5 0 8 -3 8 -7 -3 -20 2 -34 10 -29 5 4 7 -3 4 -14 -3 -11 0 -20 6
-20 6 0 11 -6 11 -14 0 -7 7 -27 15 -42 17 -33 20 -58 5 -49 -5 3 -10 -1 -10
-10 0 -8 -7 -18 -15 -21 -8 -4 -13 -9 -10 -14 2 -4 -7 -13 -20 -20 -14 -7 -27
-21 -30 -31 -4 -10 -10 -18 -14 -16 -5 1 -23 -10 -40 -25 -17 -16 -34 -28 -37
-28 -3 0 -18 -9 -34 -20 -15 -11 -30 -17 -34 -13 -3 3 -6 2 -6 -4 0 -6 -10
-14 -22 -18 -31 -10 -37 -12 -43 -15 -3 -1 -9 -4 -15 -5 -5 -1 -11 -3 -12 -5
-4 -2 -40 -10 -60 -12 -10 -1 -18 -6 -18 -10 0 -4 -10 -6 -22 -4 -13 2 -30 0
-39 -5 -20 -10 -190 -16 -204 -7 -6 4 -17 3 -25 -2 -9 -5 -19 -5 -27 2 -7 6
-13 7 -13 3 0 -4 -8 -1 -17 6 -15 12 -16 12 -8 -1 7 -12 6 -13 -6 -4 -8 6 -24
10 -36 8 -14 -2 -23 1 -23 9 0 8 -4 7 -10 -3 -6 -10 -10 -11 -10 -3 0 9 -13
12 -39 10 -29 -2 -38 0 -34 10 4 9 0 11 -11 7 -9 -3 -24 0 -33 7 -14 12 -16
12 -8 -1 7 -12 6 -13 -6 -4 -8 6 -24 10 -36 9 -12 -1 -20 2 -17 6 2 4 -4 8
-13 8 -10 -1 -31 3 -48 7 -16 4 -38 7 -47 8 -10 0 -18 3 -18 7 0 4 -17 9 -37
13 -68 10 -80 13 -93 21 -9 5 -11 4 -6 -3 4 -7 2 -12 -3 -12 -6 0 -11 4 -11 9
0 5 -13 8 -29 7 -17 -1 -28 2 -25 6 5 8 -5 9 -96 11 -27 1 -50 4 -50 7 0 3
-47 6 -105 6 -65 -1 -105 -5 -105 -11 0 -5 -4 -4 -9 4 -5 8 -14 10 -22 6 -7
-5 -33 -10 -58 -12 -25 -1 -57 -6 -71 -9 -14 -4 -31 -6 -37 -5 -7 1 -13 -2
-13 -7 0 -5 -15 -8 -34 -7 -19 0 -32 -3 -30 -7 3 -4 -4 -8 -15 -8 -11 0 -22
-4 -26 -9 -3 -6 -14 -8 -25 -6 -11 2 -20 -1 -20 -6 0 -6 -4 -7 -10 -4 -5 3
-10 1 -10 -5 0 -6 -4 -8 -10 -5 -5 3 -10 2 -10 -4 0 -6 -6 -8 -13 -5 -7 2 -24
-5 -37 -16 -13 -11 -30 -18 -37 -16 -7 3 -13 2 -13 -3 0 -4 -12 -14 -27 -22
-36 -18 -137 -90 -141 -101 -2 -4 -10 -8 -18 -8 -9 0 -12 -5 -8 -12 5 -8 2 -9
-10 -5 -9 4 -15 3 -12 -2 6 -9 -22 -26 -36 -23 -5 1 -7 -1 -5 -6 1 -4 -8 -17
-21 -30 -12 -12 -22 -19 -22 -16 0 4 -9 -5 -21 -20 -11 -14 -26 -23 -32 -19
-7 3 -9 3 -5 -1 3 -4 -7 -20 -24 -34 -16 -15 -53 -49 -81 -77 -28 -27 -45 -41
-37 -30 7 11 0 5 -18 -13 -17 -17 -36 -32 -42 -32 -6 0 -8 -4 -5 -10 3 -6 1
-10 -5 -10 -11 0 -31 -14 -87 -61 -7 -5 -13 -7 -13 -3 0 4 -8 -2 -17 -12 -10
-10 -25 -20 -33 -22 -8 -2 -17 -7 -20 -11 -3 -4 -20 -14 -37 -22 -18 -8 -33
-18 -33 -22 0 -5 -4 -6 -9 -2 -5 3 -13 0 -16 -6 -4 -5 -13 -8 -21 -5 -8 3 -14
1 -14 -4 0 -5 -16 -12 -35 -16 -19 -3 -35 -10 -35 -15 0 -5 -13 -9 -30 -9 -16
0 -30 -4 -30 -9 0 -4 -11 -7 -25 -6 -14 2 -25 0 -25 -4 0 -4 -18 -7 -40 -7
-22 1 -40 -2 -40 -6 0 -4 -9 -5 -20 -3 -11 2 -21 1 -24 -3 -5 -8 -277 -8 -291
0 -6 3 -18 4 -27 3 -10 -2 -18 0 -18 5 0 4 -12 6 -27 4 -15 -1 -32 1 -38 5 -5
4 -17 7 -25 6 -8 0 -17 2 -20 6 -3 4 -18 9 -35 10 -16 2 -33 7 -36 11 -3 5
-17 9 -32 10 -15 1 -27 5 -27 9 0 6 -25 16 -60 24 -8 2 -16 9 -18 15 -2 5 -8
8 -13 4 -5 -3 -9 0 -9 6 0 7 -6 10 -12 8 -7 -3 -21 4 -32 14 -11 10 -26 18
-33 18 -7 0 -13 5 -13 10 0 6 -7 10 -15 10 -8 0 -15 5 -15 10 0 6 -7 10 -15
10 -8 0 -15 5 -15 10 0 6 -7 10 -16 10 -8 0 -12 4 -9 10 3 5 0 10 -7 10 -14 0
-54 30 -114 87 -19 17 -34 29 -34 27 0 -3 -13 8 -29 23 -69 67 -100 91 -107
85 -4 -4 -4 1 -1 11 4 11 3 16 -3 12 -6 -3 -10 -1 -10 4 0 6 -6 11 -13 11 -15
0 -53 41 -49 53 1 5 -2 6 -8 2 -5 -3 -13 1 -16 9 -3 9 -12 16 -20 16 -7 0 -19
9 -27 21 -8 11 -24 21 -35 22 -11 0 -19 4 -17 7 2 3 -14 17 -36 30 -21 14 -39
28 -39 32 0 5 -9 8 -20 8 -11 0 -20 5 -20 10 0 6 -9 10 -21 10 -11 0 -18 4
-15 9 3 5 -1 12 -10 15 -10 4 -13 2 -8 -7 4 -6 -2 -4 -13 6 -11 10 -31 20 -44
22 -13 3 -25 9 -27 14 -2 6 -10 7 -19 4 -8 -3 -18 -1 -22 5 -4 7 -19 13 -34
14 -15 1 -27 5 -27 8 0 3 -10 7 -22 8 -30 3 -50 7 -69 16 -9 4 -36 8 -60 10
-25 1 -51 6 -59 11 -9 5 -11 4 -6 -4 5 -8 1 -8 -19 1 -18 8 -29 8 -37 0 -8 -8
-16 -7 -29 1 -14 9 -21 9 -30 0 -9 -9 -16 -9 -29 0 -14 8 -22 8 -33 -2 -9 -7
-18 -8 -21 -2 -7 10 -25 9 -43 -2 -8 -5 -13 -3 -13 4 0 8 -4 8 -12 2 -7 -5
-35 -9 -63 -9 -27 1 -56 -5 -63 -11 -10 -9 -19 -10 -32 -3 -13 7 -21 7 -25 0
-4 -6 -11 -8 -16 -5 -5 4 -9 2 -9 -4 0 -6 -12 -10 -27 -9 -38 1 -84 -11 -102
-25 -12 -10 -13 -9 -7 1 6 11 4 11 -10 3 -21 -11 -101 -32 -124 -32 -8 -1 -22
-3 -30 -6 -8 -4 -28 -8 -45 -10 -16 -3 -36 -10 -44 -16 -11 -9 -15 -9 -18 0
-3 8 -10 8 -29 -2 -13 -7 -42 -12 -64 -11 -22 1 -40 -1 -40 -4 0 -7 -8 -7
-115 -9 -99 -1 -147 2 -160 10 -5 4 -18 5 -27 4 -10 -2 -18 2 -18 8 0 8 -3 7
-9 -2 -6 -9 -10 -10 -16 -2 -3 7 -15 9 -26 6 -11 -4 -19 -2 -19 4 0 6 -11 11
-24 11 -14 0 -28 5 -31 10 -4 6 -10 8 -15 5 -5 -3 -15 1 -23 9 -8 8 -17 12
-21 9 -3 -4 -6 -1 -6 6 0 7 -5 9 -10 6 -6 -3 -10 -1 -10 4 0 6 -4 10 -9 8 -12
-3 -91 45 -91 56 0 4 -4 5 -10 2 -5 -3 -10 1 -10 9 0 15 -13 21 -35 16 -5 -1
-7 1 -4 5 4 3 -13 27 -36 52 -24 25 -42 51 -41 57 6 30 18 56 27 56 6 0 7 5 4
10 -3 6 -1 10 4 10 6 0 11 9 11 19 0 11 6 26 13 33 8 7 12 18 10 24 -2 7 3 18
11 27 8 8 13 24 11 36 -2 12 0 21 4 21 4 0 8 6 9 13 0 6 3 26 7 43 10 53 11
174 1 174 -6 0 -5 5 1 11 11 11 11 19 -4 57 -3 9 -7 27 -8 39 -1 12 -8 30 -16
40 -12 15 -12 16 1 9 8 -4 5 1 -8 12 -15 14 -31 19 -52 16 -23 -4 -30 -1 -30
10 0 9 -4 16 -10 16 -5 0 -10 12 -10 26 0 18 6 28 21 31 16 4 20 12 17 37 -1
17 -8 37 -15 44 -7 8 -10 18 -7 24 4 7 2 8 -4 4 -7 -4 -12 -1 -12 8 0 9 -5 16
-12 16 -6 0 -9 3 -5 6 3 3 -4 17 -16 29 -12 13 -34 37 -49 54 -15 17 -31 32
-35 34 -4 1 -19 14 -34 30 -14 15 -31 27 -38 27 -6 0 -11 4 -11 9 0 5 -13 14
-30 21 -16 7 -30 16 -30 21 0 5 -9 9 -20 9 -11 0 -20 5 -20 11 0 5 -4 7 -10 4
-5 -3 -10 -1 -10 6 0 8 -4 8 -16 -1 -12 -11 -15 -11 -12 1 2 9 -4 13 -14 11
-10 -2 -18 1 -18 6 0 5 -6 9 -12 10 -7 1 -33 6 -58 12 -25 6 -56 12 -70 13
-14 1 -31 6 -39 11 -10 6 -12 6 -7 -2 4 -7 2 -12 -3 -12 -6 0 -11 3 -11 8 0 4
-16 8 -35 8 -19 1 -32 -3 -29 -7 3 -5 -5 -5 -18 0 -13 4 -34 5 -48 1z m118
-284 c6 -3 13 -2 17 3 3 6 22 2 47 -9 23 -10 47 -16 55 -13 7 3 13 0 13 -7 0
-6 4 -9 9 -5 5 3 16 -2 24 -10 9 -8 20 -15 26 -15 18 0 101 -74 101 -90 0 -6
3 -9 8 -7 8 5 53 -38 52 -50 0 -5 6 -15 14 -25 8 -9 12 -19 9 -22 -4 -3 -2 -6
4 -6 10 0 26 -36 24 -52 -1 -5 3 -8 9 -8 6 0 9 -3 9 -7 -4 -22 2 -54 9 -50 4
3 7 -24 7 -59 0 -36 4 -64 10 -64 7 0 6 -3 0 -8 -6 -4 -10 -23 -10 -42 1 -19
-3 -46 -8 -60 -5 -14 -11 -34 -13 -45 -6 -30 -55 -125 -65 -125 -5 0 -9 -4 -9
-9 0 -14 -72 -91 -84 -91 -7 0 -19 -9 -29 -20 -9 -11 -24 -20 -32 -20 -8 0
-15 -3 -15 -7 0 -5 -11 -13 -25 -20 -19 -8 -23 -8 -18 0 5 9 3 9 -8 1 -14 -12
-62 -27 -89 -28 -8 -1 -21 -5 -29 -10 -11 -7 -12 -6 -6 5 7 12 6 12 -7 1 -10
-8 -18 -9 -22 -3 -4 6 -16 7 -28 2 -12 -4 -40 -4 -62 1 -22 5 -49 7 -58 4 -10
-2 -16 0 -12 5 3 5 -6 9 -20 9 -14 0 -26 4 -26 10 0 5 -3 9 -7 8 -16 -4 -104
42 -98 52 3 5 -2 10 -11 10 -17 0 -74 56 -74 72 0 4 -7 8 -16 8 -8 0 -12 5 -9
10 3 6 2 10 -3 10 -11 0 -67 111 -64 128 2 6 -1 12 -5 12 -5 0 -10 15 -12 33
-4 37 -8 70 -11 77 -6 15 2 119 10 140 1 3 2 8 1 12 0 4 4 20 11 35 6 15 12
30 13 33 0 3 6 15 13 28 7 12 10 22 7 22 -4 0 1 7 9 16 9 8 13 20 10 26 -4 7
-2 8 4 4 7 -4 12 -1 12 8 0 9 7 16 15 16 8 0 14 3 14 8 -3 17 1 35 7 29 8 -8
44 25 38 35 -3 4 1 8 9 8 8 0 18 7 21 16 3 8 10 13 16 9 5 -3 15 3 21 14 7 10
19 17 26 14 7 -3 13 0 13 6 0 6 9 11 20 11 11 0 20 4 20 9 0 6 9 8 20 6 12 -2
18 0 14 6 -3 6 2 10 12 9 37 -4 75 0 71 8 -6 9 96 7 111 -2z m8492 -2 c14 -4
27 -8 30 -8 3 -1 11 -5 19 -10 10 -7 12 -6 6 4 -9 15 1 10 49 -24 16 -11 26
-15 22 -8 -12 19 1 14 30 -13 14 -13 32 -22 38 -18 6 3 8 3 4 -2 -8 -8 42 -52
54 -47 5 1 8 -7 8 -19 0 -11 5 -17 10 -14 6 3 10 -1 10 -9 0 -9 5 -16 10 -16
6 0 10 -7 10 -15 0 -8 4 -15 8 -15 5 0 15 -12 22 -27 8 -16 21 -37 30 -47 13
-17 13 -18 0 -11 -12 7 -12 5 1 -11 16 -19 19 -29 21 -91 1 -18 4 -33 8 -33 3
0 7 -18 7 -40 0 -22 -3 -37 -8 -34 -5 3 -6 -2 -3 -10 3 -9 11 -13 16 -10 6 4
2 -6 -8 -22 -12 -17 -14 -25 -6 -20 11 7 12 4 3 -13 -7 -12 -9 -26 -6 -31 3
-6 1 -10 -6 -10 -8 0 -7 -5 2 -17 8 -9 9 -14 2 -10 -7 5 -16 -6 -23 -28 -6
-19 -15 -35 -20 -35 -4 0 -7 -8 -6 -17 0 -10 -5 -17 -12 -15 -8 1 -11 -1 -8
-6 7 -11 -29 -64 -37 -55 -4 3 -7 1 -7 -6 0 -7 -11 -22 -25 -33 -14 -11 -23
-24 -20 -29 4 -5 -1 -6 -9 -3 -9 4 -18 -1 -22 -10 -3 -9 -10 -13 -15 -10 -5 3
-9 1 -9 -4 0 -11 -57 -36 -77 -35 -7 0 -13 -3 -13 -8 0 -9 -67 -25 -89 -20 -7
1 -10 -2 -7 -7 7 -11 -13 -10 -31 1 -6 4 -14 4 -17 -1 -7 -12 -130 -3 -154 12
-7 4 -12 2 -13 -6 0 -10 -2 -10 -6 0 -2 6 -13 12 -24 12 -10 0 -19 5 -19 11 0
6 -7 8 -15 5 -9 -3 -18 1 -21 9 -4 8 -10 12 -15 9 -5 -3 -9 0 -9 6 0 6 -4 8
-10 5 -5 -3 -10 -1 -10 4 0 6 -7 11 -16 11 -8 0 -12 5 -9 10 3 6 0 10 -8 10
-8 0 -33 21 -55 48 -23 26 -48 55 -57 65 -8 9 -15 22 -15 27 0 6 -4 10 -10 10
-5 0 -10 11 -10 24 0 13 -5 26 -10 28 -6 2 -11 14 -12 28 -1 14 -5 30 -10 36
-4 6 -6 20 -3 33 2 13 0 19 -6 15 -6 -4 -9 25 -8 80 1 47 5 86 9 86 4 0 6 11
5 25 -2 14 1 27 6 31 5 3 9 16 9 30 0 14 7 27 15 30 8 4 13 10 10 14 -3 5 -1
11 5 15 6 4 8 11 5 16 -4 5 -1 9 4 9 6 0 11 7 11 15 0 8 5 15 10 15 6 0 15 11
22 25 6 13 14 22 19 20 4 -3 10 4 14 15 4 11 11 18 16 15 5 -4 9 -2 9 3 0 5
15 20 34 33 19 13 33 26 31 30 -3 3 7 5 20 3 14 -1 23 2 19 7 -3 5 0 9 6 9 6
0 9 4 6 8 -3 5 9 6 26 4 20 -3 29 -1 24 6 -4 7 1 10 14 7 11 -2 22 0 25 6 4 5
14 5 27 -2 13 -7 18 -7 14 -1 -11 18 116 22 174 6z"/>
<path d="M4979 2850 c-51 -23 -79 -43 -79 -58 0 -7 -5 -10 -10 -7 -6 4 -10 3
-9 -2 4 -21 -2 -44 -10 -39 -5 3 -8 -24 -6 -62 2 -50 9 -78 27 -110 14 -23 28
-39 31 -35 4 3 7 -2 8 -13 0 -11 3 -14 6 -6 4 9 9 8 21 -6 10 -11 25 -18 34
-16 10 1 20 -1 23 -6 3 -4 20 -5 38 -1 18 5 40 7 50 5 9 -1 17 2 17 7 0 5 7 9
16 9 9 0 12 5 8 12 -4 7 -3 8 5 4 11 -7 27 7 73 63 7 8 13 22 14 30 10 63 11
91 4 91 -4 0 -7 11 -6 25 2 13 -2 23 -8 22 -6 -1 -10 3 -9 10 2 7 -8 24 -22
37 -14 14 -25 22 -25 19 0 -3 -8 2 -19 11 -10 9 -28 18 -40 19 -11 1 -21 4
-21 7 0 13 -78 6 -111 -10z"/>
<path d="M3203 2499 c-12 -4 -31 -6 -43 -4 -11 2 -20 -1 -20 -6 0 -6 -4 -8 -9
-4 -5 3 -12 1 -16 -5 -4 -6 -10 -8 -15 -5 -5 3 -11 1 -15 -5 -4 -6 -11 -8 -16
-5 -5 4 -9 1 -9 -4 0 -6 -6 -11 -12 -11 -7 0 -31 -16 -53 -35 -22 -19 -43 -35
-48 -35 -4 0 -6 -4 -3 -9 3 -5 -1 -12 -10 -15 -9 -4 -14 -9 -11 -13 4 -3 0
-11 -8 -17 -7 -6 -15 -18 -17 -26 -2 -8 -10 -21 -18 -28 -8 -8 -10 -11 -3 -8
7 4 5 -6 -5 -26 -9 -18 -15 -41 -13 -52 1 -10 -1 -16 -6 -13 -4 3 -8 -33 -8
-79 0 -46 4 -84 8 -84 5 0 6 -4 2 -9 -8 -13 55 -152 66 -145 5 3 9 -2 9 -11 0
-9 4 -13 10 -10 6 3 7 -1 4 -9 -3 -9 -2 -16 3 -16 5 0 19 -9 31 -20 12 -12 22
-18 22 -14 0 4 8 -2 18 -12 23 -25 61 -46 72 -39 4 3 10 0 12 -7 2 -6 18 -11
36 -11 18 0 32 -3 32 -7 0 -9 157 -6 166 3 4 4 16 7 26 7 10 0 18 6 18 13 0 9
2 9 9 -1 6 -10 10 -10 21 2 7 9 16 13 21 10 5 -3 9 0 9 5 0 6 7 11 15 11 9 0
18 7 21 15 4 8 10 12 15 10 4 -3 26 12 49 35 22 22 37 40 33 40 -5 0 1 7 12
16 11 8 21 18 21 22 6 27 18 51 24 47 5 -3 6 4 3 15 -3 12 0 20 7 20 7 0 10 7
6 15 -3 8 0 15 6 15 6 0 8 3 5 7 -4 3 -1 13 6 21 9 13 9 14 0 8 -14 -8 -18 6
-6 18 10 10 9 116 -1 119 -5 2 -8 15 -8 30 0 15 -4 27 -9 27 -5 0 -9 9 -9 21
0 11 -4 17 -10 14 -5 -3 -7 0 -4 8 3 8 -2 21 -10 30 -9 9 -16 19 -16 24 0 4
-10 19 -21 33 -11 14 -18 18 -14 10 4 -8 0 -6 -9 5 -8 11 -20 25 -25 31 -5 7
-7 15 -3 18 3 4 -1 4 -11 0 -9 -3 -17 -2 -17 3 0 6 -18 18 -40 28 -22 10 -40
21 -40 24 0 7 -11 9 -67 13 -18 2 -33 6 -33 10 0 5 -5 8 -11 8 -5 0 -7 -6 -3
-12 5 -9 2 -9 -9 1 -13 10 -20 11 -30 2 -8 -6 -17 -7 -23 -2 -5 5 -19 5 -31 0z
m103 -291 c15 -7 36 -24 46 -38 21 -29 30 -99 15 -118 -5 -7 -7 -15 -4 -19 11
-11 -66 -61 -90 -58 -13 1 -23 -2 -23 -7 0 -5 -6 -6 -12 -1 -7 4 -19 8 -27 10
-8 1 -18 8 -22 15 -5 7 -9 9 -9 5 0 -12 -24 14 -38 40 -29 54 3 163 48 163 6
0 8 4 5 10 -3 5 0 7 8 4 8 -3 18 -1 21 4 7 12 47 8 82 -10z"/>
<path d="M6774 2499 c-3 -6 -12 -8 -20 -5 -7 3 -20 -2 -29 -10 -8 -9 -15 -11
-15 -6 0 7 -11 6 -29 -1 -17 -6 -27 -15 -24 -21 4 -5 1 -6 -6 -2 -7 5 -18 0
-26 -10 -8 -11 -15 -14 -15 -7 0 7 -12 1 -26 -12 -15 -14 -31 -25 -35 -25 -5
0 -8 -3 -7 -7 2 -5 -12 -23 -29 -42 -18 -18 -30 -37 -27 -42 3 -5 1 -9 -4 -9
-5 0 -13 -10 -17 -22 -10 -31 -12 -37 -15 -43 -1 -3 -4 -14 -5 -25 -1 -11 -4
-21 -5 -22 -1 -2 -4 -20 -5 -41 -1 -21 -5 -40 -8 -44 -4 -3 -2 -15 4 -26 8
-14 8 -18 0 -13 -6 4 -11 2 -11 -3 0 -6 4 -11 9 -11 5 0 8 -12 6 -26 -1 -14 4
-31 11 -39 11 -10 11 -15 1 -18 -9 -4 -9 -6 1 -6 7 -1 10 -5 7 -11 -3 -5 -1
-10 4 -10 6 0 11 -9 11 -19 0 -18 17 -43 63 -92 9 -10 17 -23 17 -29 0 -9 14
-13 25 -7 2 1 12 -8 20 -20 9 -13 23 -23 32 -23 9 0 13 -3 9 -7 -10 -11 123
-50 166 -49 21 1 38 -3 38 -9 0 -6 3 -6 8 1 4 6 18 11 32 11 45 2 93 12 99 21
3 5 14 8 23 7 9 -2 19 4 22 12 3 8 10 12 15 9 5 -3 12 1 15 10 3 8 10 13 15
10 5 -3 28 15 52 39 65 67 78 83 71 89 -3 3 0 6 7 6 7 0 9 5 6 10 -3 6 -1 10
5 10 6 0 8 5 5 10 -3 6 -1 10 5 10 6 0 8 5 5 10 -3 6 -2 10 4 10 5 0 8 9 6 20
-2 11 0 20 4 20 9 0 11 14 11 109 0 41 -3 77 -7 80 -4 3 -9 15 -11 26 -5 34
-46 109 -74 136 -15 15 -24 29 -21 33 3 3 1 6 -6 6 -6 0 -23 12 -37 28 -14 15
-23 20 -19 12 4 -10 1 -9 -8 3 -8 9 -22 17 -31 17 -10 0 -14 5 -11 10 3 6 -3
10 -14 10 -11 0 -23 5 -26 11 -4 6 -13 8 -21 5 -8 -3 -14 -1 -14 4 0 5 -13 8
-30 6 -16 -2 -30 -1 -30 3 0 10 -109 10 -116 0z m96 -281 c0 -5 7 -8 16 -8 9
0 27 -11 39 -24 13 -14 26 -22 29 -18 4 3 4 -1 0 -11 -3 -9 -2 -17 4 -17 5 0
9 -20 8 -45 -1 -35 -8 -53 -34 -82 -17 -21 -32 -32 -32 -25 0 10 -4 9 -16 -2
-8 -9 -20 -14 -25 -11 -5 4 -9 2 -9 -4 0 -17 -79 17 -110 47 -21 22 -26 32
-17 41 8 8 8 11 -2 11 -7 0 -9 5 -6 10 3 6 3 10 -2 10 -4 0 -8 11 -8 24 0 13
3 22 7 20 4 -3 10 6 14 20 6 24 51 63 67 58 4 -1 7 2 7 6 0 5 16 8 35 8 19 -1
35 -4 35 -8z"/>
</g>
</svg>
